<svg width="365" height="171" viewBox="0 0 365 171" fill="none" xmlns="http://www.w3.org/2000/svg">
  <path
    d="M115.316 12.0881C114.32 13.0849 113.643 14.3548 113.368 15.7372C113.094 17.1196 113.235 18.5526 113.773 19.8548C114.312 21.157 115.224 22.2699 116.395 23.0529C117.565 23.8359 118.941 24.2539 120.349 24.2539C121.756 24.2539 123.132 23.8359 124.302 23.0529C125.473 22.2699 126.385 21.157 126.924 19.8548C127.463 18.5526 127.603 17.1196 127.329 15.7372C127.054 14.3548 126.377 13.0849 125.382 12.0881C124.721 11.4261 123.936 10.901 123.073 10.5427C122.209 10.1845 121.283 10 120.349 10C119.414 10 118.488 10.1845 117.625 10.5427C116.761 10.901 115.976 11.4261 115.316 12.0881Z"
    stroke="#F9F9F9" stroke-miterlimit="10" />
  <path
    d="M86.0838 81.6467C85.0886 82.6435 84.4111 83.9133 84.1366 85.2958C83.8622 86.6782 84.0032 88.1112 84.542 89.4134C85.0807 90.7156 85.993 91.8285 87.1633 92.6115C88.3337 93.3945 89.7096 93.8125 91.1172 93.8125C92.5247 93.8125 93.9004 93.3945 95.0707 92.6115C96.2411 91.8285 97.1534 90.7156 97.6921 89.4134C98.2308 88.1112 98.3719 86.6782 98.0974 85.2958C97.823 83.9133 97.1454 82.6435 96.1503 81.6467C95.4893 80.9847 94.7047 80.4596 93.8411 80.1013C92.9775 79.743 92.0519 79.5586 91.1172 79.5586C90.1824 79.5586 89.2565 79.743 88.3929 80.1013C87.5293 80.4596 86.7447 80.9847 86.0838 81.6467Z"
    stroke="#F9F9F9" stroke-miterlimit="10" />
  <path
    d="M115.316 148.834C114.32 149.831 113.643 151.101 113.368 152.483C113.094 153.866 113.235 155.299 113.773 156.601C114.312 157.903 115.224 159.016 116.395 159.799C117.565 160.582 118.941 161 120.349 161C121.756 161 123.132 160.582 124.302 159.799C125.473 159.016 126.385 157.903 126.924 156.601C127.463 155.299 127.603 153.866 127.329 152.483C127.054 151.101 126.377 149.831 125.382 148.834C124.721 148.172 123.936 147.647 123.073 147.289C122.209 146.93 121.283 146.746 120.349 146.746C119.414 146.746 118.488 146.93 117.625 147.289C116.761 147.647 115.976 148.172 115.316 148.834Z"
    stroke="#F9F9F9" stroke-miterlimit="10" />
  <line x1="98.2344" y1="86.4727" x2="141.506" y2="86.4727" stroke="#F9F9F9" />
  <path d="M127.841 17.4141H171.112V154.251H127.841" stroke="#F9F9F9" />
  <path
    d="M249.684 12.0881C250.68 13.0849 251.357 14.3548 251.632 15.7372C251.906 17.1196 251.765 18.5526 251.227 19.8548C250.688 21.157 249.776 22.2699 248.605 23.0529C247.435 23.8359 246.059 24.2539 244.651 24.2539C243.244 24.2539 241.868 23.8359 240.698 23.0529C239.527 22.2699 238.615 21.157 238.076 19.8548C237.537 18.5526 237.397 17.1196 237.671 15.7372C237.946 14.3548 238.623 13.0849 239.618 12.0881C240.279 11.4261 241.064 10.901 241.927 10.5427C242.791 10.1845 243.717 10 244.651 10C245.586 10 246.512 10.1845 247.375 10.5427C248.239 10.901 249.024 11.4261 249.684 12.0881Z"
    stroke="#F9F9F9" stroke-miterlimit="10" />
  <path
    d="M278.916 81.6467C279.911 82.6435 280.589 83.9133 280.863 85.2958C281.138 86.6782 280.997 88.1112 280.458 89.4134C279.919 90.7156 279.007 91.8285 277.837 92.6115C276.666 93.3945 275.29 93.8125 273.883 93.8125C272.475 93.8125 271.1 93.3945 269.929 92.6115C268.759 91.8285 267.847 90.7156 267.308 89.4134C266.769 88.1112 266.628 86.6782 266.903 85.2958C267.177 83.9133 267.855 82.6435 268.85 81.6467C269.511 80.9847 270.295 80.4596 271.159 80.1013C272.023 79.743 272.948 79.5586 273.883 79.5586C274.818 79.5586 275.743 79.743 276.607 80.1013C277.471 80.4596 278.255 80.9847 278.916 81.6467Z"
    stroke="#F9F9F9" stroke-miterlimit="10" />
  <path
    d="M249.684 148.834C250.68 149.831 251.357 151.101 251.632 152.483C251.906 153.866 251.765 155.299 251.227 156.601C250.688 157.903 249.776 159.016 248.605 159.799C247.435 160.582 246.059 161 244.651 161C243.244 161 241.868 160.582 240.698 159.799C239.527 159.016 238.615 157.903 238.076 156.601C237.537 155.299 237.397 153.866 237.671 152.483C237.946 151.101 238.623 149.831 239.618 148.834C240.279 148.172 241.064 147.647 241.927 147.289C242.791 146.93 243.717 146.746 244.651 146.746C245.586 146.746 246.512 146.93 247.375 147.289C248.239 147.647 249.024 148.172 249.684 148.834Z"
    stroke="#F9F9F9" stroke-miterlimit="10" />
  <line y1="-0.5" x2="43.2717" y2="-0.5" transform="matrix(-1 0 0 1 266.766 86.9727)" stroke="#F9F9F9" />
  <path d="M237.159 17.4141H193.888V154.251H237.159" stroke="#F9F9F9" />
  <path
    d="M205.023 130.852L237.443 98.3873C238.923 96.9049 240.098 95.1449 240.899 93.2079C241.7 91.2709 242.112 89.1948 242.112 87.0982C242.112 85.0016 241.7 82.9255 240.899 80.9885C240.098 79.0516 238.923 77.2916 237.443 75.8091L205.023 43.3445C203.542 41.8619 201.785 40.6857 199.851 39.8833C197.916 39.0809 195.843 38.668 193.75 38.668C191.656 38.668 189.583 39.0809 187.648 39.8833C185.714 40.6857 183.957 41.8619 182.476 43.3445L150.057 75.8091C148.576 77.2916 147.402 79.0516 146.6 80.9885C145.799 82.9255 145.387 85.0016 145.387 87.0982C145.387 89.1948 145.799 91.2709 146.6 93.2079C147.402 95.1449 148.576 96.9049 150.057 98.3873L182.476 130.852C183.957 132.335 185.714 133.511 187.648 134.313C189.583 135.115 191.656 135.528 193.75 135.528C195.843 135.528 197.916 135.115 199.851 134.313C201.785 133.511 203.542 132.335 205.023 130.852Z"
    fill="#43FFA8" stroke="black" stroke-miterlimit="10" />
  <path
    d="M184.595 130.852L217.015 98.3873C218.495 96.9049 219.67 95.1449 220.471 93.2079C221.272 91.2709 221.685 89.1948 221.685 87.0982C221.685 85.0016 221.272 82.9255 220.471 80.9885C219.67 79.0516 218.495 77.2916 217.015 75.8091L184.595 43.3445C183.115 41.8619 181.357 40.6857 179.423 39.8833C177.489 39.0809 175.416 38.668 173.322 38.668C171.228 38.668 169.155 39.0809 167.221 39.8833C165.286 40.6857 163.529 41.8619 162.048 43.3445L129.629 75.8091C128.148 77.2916 126.974 79.0516 126.172 80.9885C125.371 82.9255 124.959 85.0016 124.959 87.0982C124.959 89.1948 125.371 91.2709 126.172 93.2079C126.974 95.1449 128.148 96.9049 129.629 98.3873L162.048 130.852C163.529 132.335 165.286 133.511 167.221 134.313C169.155 135.115 171.228 135.528 173.322 135.528C175.416 135.528 177.489 135.115 179.423 134.313C181.357 133.511 183.115 132.335 184.595 130.852Z"
    fill="#34DBFF" stroke="black" stroke-miterlimit="10" />
  <path
    d="M165.156 109.481C164.503 109.512 163.852 109.406 163.242 109.17C162.633 108.934 162.079 108.573 161.617 108.111C161.155 107.648 160.795 107.094 160.559 106.483C160.323 105.873 160.218 105.22 160.248 104.567C160.248 92.8214 160.248 81.08 160.248 69.3424C160.218 68.6893 160.323 68.0371 160.558 67.427C160.793 66.817 161.152 66.2626 161.613 65.7993C162.073 65.3359 162.625 64.9736 163.233 64.7355C163.841 64.4974 164.493 64.3887 165.145 64.4163H181.486C182.137 64.3889 182.788 64.4972 183.396 64.7345C184.004 64.9718 184.556 65.3328 185.017 65.7948C185.478 66.2568 185.839 66.8096 186.076 67.4183C186.313 68.027 186.421 68.6783 186.394 69.331V104.681C186.423 105.764 186.075 106.823 185.41 107.678C184.746 108.533 183.805 109.13 182.75 109.367C182.334 109.455 181.91 109.497 181.486 109.493H165.156V109.481ZM165.27 65.4312C164.732 65.3806 164.189 65.4493 163.68 65.6322C163.171 65.8151 162.708 66.1079 162.324 66.4898C161.941 66.8717 161.646 67.3332 161.46 67.842C161.275 68.3507 161.203 68.8942 161.25 69.4337V104.51C161.215 105.039 161.293 105.571 161.48 106.068C161.667 106.565 161.958 107.016 162.333 107.391C162.709 107.765 163.16 108.055 163.657 108.241C164.154 108.427 164.684 108.504 165.213 108.467H181.383C181.918 108.513 182.456 108.442 182.96 108.259C183.465 108.076 183.923 107.785 184.304 107.406C184.685 107.027 184.978 106.569 185.164 106.065C185.35 105.561 185.423 105.023 185.38 104.487V69.4223C185.423 68.8873 185.349 68.3492 185.164 67.8455C184.979 67.3417 184.687 66.8843 184.308 66.5047C183.929 66.1252 183.472 65.8326 182.969 65.6472C182.466 65.4619 181.929 65.3882 181.394 65.4312H165.27Z"
    fill="black" />
  <path
    d="M173.277 71.7368H171.261C171.192 71.7398 171.122 71.7289 171.057 71.7046C170.991 71.6804 170.931 71.6432 170.88 71.5954C170.829 71.5476 170.789 71.4901 170.76 71.4262C170.732 71.3624 170.716 71.2934 170.715 71.2236C170.726 71.0803 170.794 70.9474 170.903 70.8536C171.011 70.7597 171.152 70.7124 171.296 70.7219H175.338C175.691 70.7219 175.919 70.9271 175.919 71.2236C175.921 71.2944 175.908 71.3649 175.88 71.4303C175.853 71.4957 175.812 71.5547 175.761 71.6032C175.709 71.6516 175.648 71.6886 175.581 71.7116C175.514 71.7346 175.443 71.7433 175.372 71.7368H173.277Z"
    fill="black" />
  <path
    d="M173.323 103.198H171.261C171.192 103.203 171.123 103.193 171.057 103.17C170.992 103.147 170.932 103.111 170.881 103.064C170.83 103.017 170.789 102.961 170.76 102.897C170.732 102.834 170.716 102.766 170.715 102.696C170.718 102.624 170.735 102.554 170.766 102.489C170.797 102.424 170.842 102.366 170.896 102.319C170.951 102.272 171.014 102.236 171.083 102.215C171.152 102.194 171.224 102.187 171.296 102.195H175.338C175.691 102.195 175.919 102.388 175.919 102.696C175.919 102.766 175.905 102.835 175.877 102.899C175.849 102.964 175.808 103.021 175.756 103.068C175.705 103.115 175.644 103.151 175.578 103.174C175.512 103.196 175.442 103.204 175.372 103.198H173.323Z"
    fill="black" />
</svg>