<svg width="350" height="202" viewBox="0 0 350 203" fill="none" xmlns="http://www.w3.org/2000/svg">
<circle cx="175" cy="27.4622" r="26.5231" fill="#34DBFF" stroke="#0A1214" stroke-width="0.8"/>
<rect width="25.5769" height="25.5769" transform="translate(162.212 14.6738)" fill="white" style="mix-blend-mode:multiply"/>
<mask id="path-2-inside-1_1550_401" fill="white">
<path d="M175 37.0536C173.103 37.0536 171.249 36.491 169.672 35.4371C168.094 34.3832 166.865 32.8853 166.139 31.1327C165.413 29.3801 165.223 27.4516 165.593 25.591C165.963 23.7305 166.877 22.0215 168.218 20.6801C169.56 19.3387 171.269 18.4252 173.129 18.0551C174.99 17.6851 176.918 17.875 178.671 18.601C180.423 19.3269 181.921 20.5562 182.975 22.1335C184.029 23.7108 184.592 25.5652 184.592 27.4622C184.592 30.006 183.581 32.4456 181.782 34.2443C179.984 36.0431 177.544 37.0536 175 37.0536ZM175 19.4694C173.42 19.4694 171.874 19.9382 170.56 20.8164C169.245 21.6947 168.221 22.943 167.616 24.4035C167.011 25.864 166.853 27.4711 167.161 29.0215C167.47 30.572 168.231 31.9962 169.349 33.114C170.466 34.2318 171.891 34.993 173.441 35.3014C174.991 35.6098 176.599 35.4515 178.059 34.8466C179.52 34.2416 180.768 33.2172 181.646 31.9028C182.524 30.5884 182.993 29.043 182.993 27.4622C182.993 25.3424 182.151 23.3094 180.652 21.8104C179.153 20.3115 177.12 19.4694 175 19.4694Z"/>
<path d="M175 32.2579C174.052 32.2579 173.125 31.9766 172.336 31.4497C171.547 30.9227 170.933 30.1737 170.57 29.2974C170.207 28.4211 170.112 27.4569 170.297 26.5266C170.482 25.5963 170.939 24.7418 171.609 24.0712C172.28 23.4005 173.134 22.9437 174.065 22.7587C174.995 22.5736 175.959 22.6686 176.836 23.0316C177.712 23.3946 178.461 24.0092 178.988 24.7979C179.515 25.5865 179.796 26.5137 179.796 27.4622C179.796 28.7341 179.291 29.9539 178.391 30.8533C177.492 31.7526 176.272 32.2579 175 32.2579ZM175 24.2651C174.368 24.2651 173.75 24.4526 173.224 24.8039C172.698 25.1552 172.289 25.6545 172.047 26.2387C171.805 26.8229 171.741 27.4658 171.865 28.0859C171.988 28.7061 172.293 29.2758 172.74 29.7229C173.187 30.17 173.756 30.4745 174.377 30.5979C174.997 30.7213 175.64 30.6579 176.224 30.416C176.808 30.174 177.307 29.7642 177.659 29.2384C178.01 28.7127 178.197 28.0945 178.197 27.4622C178.197 26.6143 177.861 25.8011 177.261 25.2015C176.661 24.6019 175.848 24.2651 175 24.2651Z"/>
<path d="M175 29.0608C175.883 29.0608 176.599 28.3451 176.599 27.4622C176.599 26.5793 175.883 25.8637 175 25.8637C174.117 25.8637 173.402 26.5793 173.402 27.4622C173.402 28.3451 174.117 29.0608 175 29.0608Z"/>
</mask>
<path d="M175 37.0536C173.103 37.0536 171.249 36.491 169.672 35.4371C168.094 34.3832 166.865 32.8853 166.139 31.1327C165.413 29.3801 165.223 27.4516 165.593 25.591C165.963 23.7305 166.877 22.0215 168.218 20.6801C169.56 19.3387 171.269 18.4252 173.129 18.0551C174.99 17.6851 176.918 17.875 178.671 18.601C180.423 19.3269 181.921 20.5562 182.975 22.1335C184.029 23.7108 184.592 25.5652 184.592 27.4622C184.592 30.006 183.581 32.4456 181.782 34.2443C179.984 36.0431 177.544 37.0536 175 37.0536ZM175 19.4694C173.42 19.4694 171.874 19.9382 170.56 20.8164C169.245 21.6947 168.221 22.943 167.616 24.4035C167.011 25.864 166.853 27.4711 167.161 29.0215C167.47 30.572 168.231 31.9962 169.349 33.114C170.466 34.2318 171.891 34.993 173.441 35.3014C174.991 35.6098 176.599 35.4515 178.059 34.8466C179.52 34.2416 180.768 33.2172 181.646 31.9028C182.524 30.5884 182.993 29.043 182.993 27.4622C182.993 25.3424 182.151 23.3094 180.652 21.8104C179.153 20.3115 177.12 19.4694 175 19.4694Z" fill="#0A1214"/>
<path d="M175 32.2579C174.052 32.2579 173.125 31.9766 172.336 31.4497C171.547 30.9227 170.933 30.1737 170.57 29.2974C170.207 28.4211 170.112 27.4569 170.297 26.5266C170.482 25.5963 170.939 24.7418 171.609 24.0712C172.28 23.4005 173.134 22.9437 174.065 22.7587C174.995 22.5736 175.959 22.6686 176.836 23.0316C177.712 23.3946 178.461 24.0092 178.988 24.7979C179.515 25.5865 179.796 26.5137 179.796 27.4622C179.796 28.7341 179.291 29.9539 178.391 30.8533C177.492 31.7526 176.272 32.2579 175 32.2579ZM175 24.2651C174.368 24.2651 173.75 24.4526 173.224 24.8039C172.698 25.1552 172.289 25.6545 172.047 26.2387C171.805 26.8229 171.741 27.4658 171.865 28.0859C171.988 28.7061 172.293 29.2758 172.74 29.7229C173.187 30.17 173.756 30.4745 174.377 30.5979C174.997 30.7213 175.64 30.6579 176.224 30.416C176.808 30.174 177.307 29.7642 177.659 29.2384C178.01 28.7127 178.197 28.0945 178.197 27.4622C178.197 26.6143 177.861 25.8011 177.261 25.2015C176.661 24.6019 175.848 24.2651 175 24.2651Z" fill="#0A1214"/>
<path d="M175 29.0608C175.883 29.0608 176.599 28.3451 176.599 27.4622C176.599 26.5793 175.883 25.8637 175 25.8637C174.117 25.8637 173.402 26.5793 173.402 27.4622C173.402 28.3451 174.117 29.0608 175 29.0608Z" fill="#0A1214"/>
<path d="M175 37.0536C173.103 37.0536 171.249 36.491 169.672 35.4371C168.094 34.3832 166.865 32.8853 166.139 31.1327C165.413 29.3801 165.223 27.4516 165.593 25.591C165.963 23.7305 166.877 22.0215 168.218 20.6801C169.56 19.3387 171.269 18.4252 173.129 18.0551C174.99 17.6851 176.918 17.875 178.671 18.601C180.423 19.3269 181.921 20.5562 182.975 22.1335C184.029 23.7108 184.592 25.5652 184.592 27.4622C184.592 30.006 183.581 32.4456 181.782 34.2443C179.984 36.0431 177.544 37.0536 175 37.0536ZM175 19.4694C173.42 19.4694 171.874 19.9382 170.56 20.8164C169.245 21.6947 168.221 22.943 167.616 24.4035C167.011 25.864 166.853 27.4711 167.161 29.0215C167.47 30.572 168.231 31.9962 169.349 33.114C170.466 34.2318 171.891 34.993 173.441 35.3014C174.991 35.6098 176.599 35.4515 178.059 34.8466C179.52 34.2416 180.768 33.2172 181.646 31.9028C182.524 30.5884 182.993 29.043 182.993 27.4622C182.993 25.3424 182.151 23.3094 180.652 21.8104C179.153 20.3115 177.12 19.4694 175 19.4694Z" stroke="#0A1214" stroke-width="2" mask="url(#path-2-inside-1_1550_401)"/>
<path d="M175 32.2579C174.052 32.2579 173.125 31.9766 172.336 31.4497C171.547 30.9227 170.933 30.1737 170.57 29.2974C170.207 28.4211 170.112 27.4569 170.297 26.5266C170.482 25.5963 170.939 24.7418 171.609 24.0712C172.28 23.4005 173.134 22.9437 174.065 22.7587C174.995 22.5736 175.959 22.6686 176.836 23.0316C177.712 23.3946 178.461 24.0092 178.988 24.7979C179.515 25.5865 179.796 26.5137 179.796 27.4622C179.796 28.7341 179.291 29.9539 178.391 30.8533C177.492 31.7526 176.272 32.2579 175 32.2579ZM175 24.2651C174.368 24.2651 173.75 24.4526 173.224 24.8039C172.698 25.1552 172.289 25.6545 172.047 26.2387C171.805 26.8229 171.741 27.4658 171.865 28.0859C171.988 28.7061 172.293 29.2758 172.74 29.7229C173.187 30.17 173.756 30.4745 174.377 30.5979C174.997 30.7213 175.64 30.6579 176.224 30.416C176.808 30.174 177.307 29.7642 177.659 29.2384C178.01 28.7127 178.197 28.0945 178.197 27.4622C178.197 26.6143 177.861 25.8011 177.261 25.2015C176.661 24.6019 175.848 24.2651 175 24.2651Z" stroke="#0A1214" stroke-width="2" mask="url(#path-2-inside-1_1550_401)"/>
<path d="M175 29.0608C175.883 29.0608 176.599 28.3451 176.599 27.4622C176.599 26.5793 175.883 25.8637 175 25.8637C174.117 25.8637 173.402 26.5793 173.402 27.4622C173.402 28.3451 174.117 29.0608 175 29.0608Z" stroke="#0A1214" stroke-width="2" mask="url(#path-2-inside-1_1550_401)"/>
<circle cx="175" cy="101.501" r="26.5231" fill="url(#paint0_radial_1550_401)" stroke="#0A1214" stroke-width="0.8"/>
<path d="M175 101.499C177.79 101.499 180.049 99.2395 180.049 96.4504C180.049 93.6614 177.79 91.4023 175 91.4023C172.211 91.4023 169.952 93.6614 169.952 96.4504C169.952 99.2395 172.211 101.499 175 101.499ZM175 104.023C171.631 104.023 164.904 105.714 164.904 109.071V110.633C164.904 111.164 165.335 111.595 165.866 111.595H175H184.135C184.666 111.595 185.097 111.164 185.097 110.633V109.071C185.097 105.714 178.37 104.023 175 104.023Z" fill="#0A1214"/>
<circle cx="175" cy="175.54" r="26.5231" fill="#43FFA8" stroke="#0A1214" stroke-width="0.8"/>
<mask id="path-6-inside-2_1550_401" fill="white">
<path d="M175.631 172.384C175.631 171.882 175.831 171.401 176.186 171.046C176.541 170.691 177.022 170.491 177.524 170.491H177.587C177.744 171.257 178.179 171.938 178.809 172.401C179.438 172.865 180.218 173.078 180.996 172.999C181.774 172.921 182.495 172.556 183.019 171.976C183.543 171.396 183.834 170.642 183.834 169.86C183.834 169.078 183.543 168.324 183.019 167.744C182.495 167.164 181.774 166.8 180.996 166.721C180.218 166.642 179.438 166.856 178.809 167.319C178.179 167.782 177.744 168.463 177.587 169.229H177.524C176.687 169.229 175.885 169.562 175.293 170.153C174.702 170.745 174.369 171.547 174.369 172.384V173.015H173.107C172.605 173.015 172.124 172.816 171.769 172.461C171.414 172.106 171.214 171.624 171.214 171.122V169.86C171.214 169.023 170.882 168.221 170.29 167.629C169.698 167.037 168.896 166.705 168.059 166.705H167.428V167.967H168.059C168.561 167.967 169.043 168.167 169.398 168.522C169.753 168.877 169.952 169.358 169.952 169.86V171.122C169.952 171.959 170.285 172.761 170.876 173.353C171.468 173.945 172.27 174.277 173.107 174.277H174.369V178.694C174.369 179.196 174.17 179.678 173.815 180.033C173.46 180.388 172.978 180.587 172.476 180.587H172.413C172.257 179.821 171.821 179.141 171.192 178.677C170.562 178.214 169.783 178.001 169.005 178.079C168.227 178.158 167.506 178.522 166.981 179.102C166.457 179.682 166.167 180.436 166.167 181.218C166.167 182 166.457 182.754 166.981 183.334C167.506 183.914 168.227 184.279 169.005 184.357C169.783 184.436 170.562 184.223 171.192 183.76C171.821 183.296 172.257 182.615 172.413 181.849H172.476C173.313 181.849 174.115 181.517 174.707 180.925C175.299 180.334 175.631 179.531 175.631 178.694H177.209C177.627 178.694 178.028 178.86 178.324 179.156C178.62 179.452 178.786 179.853 178.786 180.272C178.788 181.024 179.088 181.746 179.62 182.278C180.152 182.81 180.873 183.11 181.626 183.111H182.572V181.849H181.626C181.207 181.849 180.806 181.683 180.51 181.387C180.214 181.091 180.048 180.69 180.048 180.272C180.047 179.519 179.747 178.798 179.215 178.266C178.683 177.734 177.961 177.434 177.209 177.432H175.631V172.384ZM180.679 167.967C181.054 167.967 181.42 168.078 181.731 168.286C182.042 168.494 182.285 168.79 182.428 169.136C182.571 169.482 182.609 169.862 182.536 170.229C182.463 170.597 182.283 170.934 182.018 171.199C181.753 171.463 181.416 171.644 181.049 171.717C180.681 171.79 180.301 171.752 179.955 171.609C179.609 171.466 179.313 171.223 179.105 170.912C178.897 170.601 178.786 170.235 178.786 169.86C178.786 169.358 178.986 168.877 179.341 168.522C179.696 168.167 180.177 167.967 180.679 167.967ZM169.321 183.111C168.947 183.111 168.581 183 168.269 182.792C167.958 182.584 167.715 182.289 167.572 181.943C167.429 181.597 167.391 181.216 167.464 180.849C167.537 180.482 167.718 180.144 167.983 179.88C168.247 179.615 168.585 179.435 168.952 179.362C169.319 179.289 169.7 179.326 170.046 179.469C170.391 179.613 170.687 179.855 170.895 180.167C171.103 180.478 171.214 180.844 171.214 181.218C171.214 181.72 171.015 182.202 170.66 182.557C170.305 182.912 169.823 183.111 169.321 183.111Z"/>
</mask>
<path d="M175.631 172.384C175.631 171.882 175.831 171.401 176.186 171.046C176.541 170.691 177.022 170.491 177.524 170.491H177.587C177.744 171.257 178.179 171.938 178.809 172.401C179.438 172.865 180.218 173.078 180.996 172.999C181.774 172.921 182.495 172.556 183.019 171.976C183.543 171.396 183.834 170.642 183.834 169.86C183.834 169.078 183.543 168.324 183.019 167.744C182.495 167.164 181.774 166.8 180.996 166.721C180.218 166.642 179.438 166.856 178.809 167.319C178.179 167.782 177.744 168.463 177.587 169.229H177.524C176.687 169.229 175.885 169.562 175.293 170.153C174.702 170.745 174.369 171.547 174.369 172.384V173.015H173.107C172.605 173.015 172.124 172.816 171.769 172.461C171.414 172.106 171.214 171.624 171.214 171.122V169.86C171.214 169.023 170.882 168.221 170.29 167.629C169.698 167.037 168.896 166.705 168.059 166.705H167.428V167.967H168.059C168.561 167.967 169.043 168.167 169.398 168.522C169.753 168.877 169.952 169.358 169.952 169.86V171.122C169.952 171.959 170.285 172.761 170.876 173.353C171.468 173.945 172.27 174.277 173.107 174.277H174.369V178.694C174.369 179.196 174.17 179.678 173.815 180.033C173.46 180.388 172.978 180.587 172.476 180.587H172.413C172.257 179.821 171.821 179.141 171.192 178.677C170.562 178.214 169.783 178.001 169.005 178.079C168.227 178.158 167.506 178.522 166.981 179.102C166.457 179.682 166.167 180.436 166.167 181.218C166.167 182 166.457 182.754 166.981 183.334C167.506 183.914 168.227 184.279 169.005 184.357C169.783 184.436 170.562 184.223 171.192 183.76C171.821 183.296 172.257 182.615 172.413 181.849H172.476C173.313 181.849 174.115 181.517 174.707 180.925C175.299 180.334 175.631 179.531 175.631 178.694H177.209C177.627 178.694 178.028 178.86 178.324 179.156C178.62 179.452 178.786 179.853 178.786 180.272C178.788 181.024 179.088 181.746 179.62 182.278C180.152 182.81 180.873 183.11 181.626 183.111H182.572V181.849H181.626C181.207 181.849 180.806 181.683 180.51 181.387C180.214 181.091 180.048 180.69 180.048 180.272C180.047 179.519 179.747 178.798 179.215 178.266C178.683 177.734 177.961 177.434 177.209 177.432H175.631V172.384ZM180.679 167.967C181.054 167.967 181.42 168.078 181.731 168.286C182.042 168.494 182.285 168.79 182.428 169.136C182.571 169.482 182.609 169.862 182.536 170.229C182.463 170.597 182.283 170.934 182.018 171.199C181.753 171.463 181.416 171.644 181.049 171.717C180.681 171.79 180.301 171.752 179.955 171.609C179.609 171.466 179.313 171.223 179.105 170.912C178.897 170.601 178.786 170.235 178.786 169.86C178.786 169.358 178.986 168.877 179.341 168.522C179.696 168.167 180.177 167.967 180.679 167.967ZM169.321 183.111C168.947 183.111 168.581 183 168.269 182.792C167.958 182.584 167.715 182.289 167.572 181.943C167.429 181.597 167.391 181.216 167.464 180.849C167.537 180.482 167.718 180.144 167.983 179.88C168.247 179.615 168.585 179.435 168.952 179.362C169.319 179.289 169.7 179.326 170.046 179.469C170.391 179.613 170.687 179.855 170.895 180.167C171.103 180.478 171.214 180.844 171.214 181.218C171.214 181.72 171.015 182.202 170.66 182.557C170.305 182.912 169.823 183.111 169.321 183.111Z" fill="#0A1214" stroke="#0A1214" stroke-width="2" mask="url(#path-6-inside-2_1550_401)"/>
<path d="M174.664 74.9141L174.664 54.3852M174.664 54.3852L172.645 56.741M174.664 54.3852L176.683 56.741" stroke="#0A1214" stroke-width="0.8" stroke-linecap="round" stroke-linejoin="round"/>
<path d="M201.924 101.5L222.453 101.5M222.453 101.5L220.097 99.4805M222.453 101.5L220.097 103.519" stroke="#0A1214" stroke-width="0.8" stroke-linecap="round" stroke-linejoin="round"/>
<path d="M174.664 128.424L174.664 148.616M174.664 148.616L176.684 146.26M174.664 148.616L172.645 146.26" stroke="#0A1214" stroke-width="0.8" stroke-linecap="round" stroke-linejoin="round"/>
<circle cx="249.038" cy="101.501" r="26.5231" fill="#0A1214" stroke="#0A1214" stroke-width="0.8"/>
<g clip-path="url(#clip0_1550_401)">
<path d="M257.179 97.251H253.919V98.5551H257.179V102.467H252.615V103.771H254.571V105.168C253.956 105.327 253.42 105.704 253.064 106.23C252.708 106.755 252.555 107.392 252.635 108.022C252.715 108.652 253.022 109.231 253.499 109.65C253.975 110.07 254.588 110.302 255.223 110.302C255.858 110.302 256.471 110.07 256.947 109.65C257.423 109.231 257.73 108.652 257.81 108.022C257.89 107.392 257.738 106.755 257.381 106.23C257.025 105.704 256.489 105.327 255.875 105.168V103.771H257.179C257.525 103.771 257.856 103.633 258.1 103.389C258.345 103.145 258.482 102.813 258.483 102.467V98.5551C258.483 98.2094 258.345 97.8779 258.101 97.6334C257.856 97.3889 257.525 97.2514 257.179 97.251ZM256.527 107.684C256.527 107.942 256.45 108.194 256.307 108.408C256.164 108.623 255.96 108.79 255.722 108.889C255.483 108.987 255.221 109.013 254.968 108.963C254.715 108.912 254.483 108.788 254.301 108.606C254.118 108.423 253.994 108.191 253.944 107.938C253.893 107.685 253.919 107.423 254.018 107.185C254.117 106.946 254.284 106.743 254.498 106.599C254.713 106.456 254.965 106.38 255.223 106.38C255.568 106.38 255.9 106.518 256.144 106.762C256.389 107.007 256.526 107.338 256.527 107.684Z" fill="white"/>
<path d="M250.658 94.6428H247.398V95.9469H250.658V99.8592H246.094V101.163H248.05V105.168C247.436 105.327 246.9 105.704 246.544 106.23C246.187 106.755 246.035 107.392 246.115 108.022C246.195 108.652 246.502 109.231 246.978 109.65C247.454 110.07 248.067 110.302 248.702 110.302C249.337 110.302 249.95 110.07 250.426 109.65C250.903 109.231 251.21 108.652 251.29 108.022C251.37 107.392 251.217 106.755 250.861 106.23C250.505 105.704 249.969 105.327 249.354 105.168V101.163H250.658C251.004 101.163 251.336 101.025 251.58 100.781C251.825 100.536 251.962 100.205 251.963 99.8592V95.9469C251.962 95.6012 251.825 95.2697 251.58 95.0252C251.336 94.7808 251.004 94.6432 250.658 94.6428ZM250.006 107.684C250.006 107.942 249.93 108.194 249.787 108.408C249.643 108.623 249.44 108.79 249.201 108.889C248.963 108.987 248.701 109.013 248.448 108.963C248.195 108.912 247.963 108.788 247.78 108.606C247.598 108.423 247.474 108.191 247.423 107.938C247.373 107.685 247.399 107.423 247.497 107.185C247.596 106.946 247.763 106.743 247.978 106.599C248.192 106.456 248.444 106.38 248.702 106.38C249.048 106.38 249.379 106.518 249.624 106.762C249.868 107.007 250.006 107.338 250.006 107.684Z" fill="white"/>
<path d="M244.138 92.0347H240.226C239.88 92.035 239.548 92.1725 239.304 92.417C239.059 92.6615 238.922 92.993 238.922 93.3388V97.251C238.922 97.5968 239.059 97.9283 239.304 98.1728C239.548 98.4173 239.88 98.5548 240.226 98.5551H241.53V105.168C240.915 105.327 240.379 105.704 240.023 106.23C239.667 106.755 239.514 107.392 239.594 108.022C239.674 108.652 239.981 109.231 240.458 109.65C240.934 110.07 241.547 110.302 242.182 110.302C242.817 110.302 243.43 110.07 243.906 109.65C244.382 109.231 244.689 108.652 244.769 108.022C244.849 107.392 244.697 106.755 244.341 106.23C243.984 105.704 243.449 105.327 242.834 105.168V98.5551H244.138C244.484 98.5548 244.815 98.4173 245.06 98.1728C245.304 97.9283 245.442 97.5968 245.442 97.251V93.3388C245.442 92.993 245.304 92.6615 245.06 92.417C244.815 92.1725 244.484 92.035 244.138 92.0347ZM243.486 107.684C243.486 107.942 243.409 108.194 243.266 108.408C243.123 108.623 242.919 108.79 242.681 108.889C242.443 108.987 242.18 109.013 241.927 108.963C241.674 108.912 241.442 108.788 241.26 108.606C241.077 108.423 240.953 108.191 240.903 107.938C240.853 107.685 240.878 107.423 240.977 107.185C241.076 106.946 241.243 106.743 241.457 106.599C241.672 106.456 241.924 106.38 242.182 106.38C242.528 106.38 242.859 106.518 243.104 106.762C243.348 107.007 243.486 107.338 243.486 107.684ZM240.226 97.251V93.3388H244.138L244.139 97.251H240.226Z" fill="white"/>
</g>
<defs>
<radialGradient id="paint0_radial_1550_401" cx="0" cy="0" r="1" gradientUnits="userSpaceOnUse" gradientTransform="translate(175 101.501) rotate(90) scale(26.9231)">
<stop offset="0.536458" stop-color="white" stop-opacity="0"/>
<stop offset="1" stop-color="#34DBFF" stop-opacity="0.4"/>
</radialGradient>
<clipPath id="clip0_1550_401">
<rect width="20.8654" height="20.8654" fill="white" transform="translate(238.27 90.7305)"/>
</clipPath>
</defs>
</svg>
