<svg width="481" height="481" viewBox="0 0 481 481" fill="none" xmlns="http://www.w3.org/2000/svg">
  <circle cx="240.5" cy="138.75" r="36.6" fill="#34DBFF" stroke="#0A1214" stroke-width="0.8" />
  <rect width="35.15" height="35.15" transform="translate(222.925 121.176)" fill="white"
    style="mix-blend-mode:multiply" />
  <mask id="path-2-inside-1_1549_362" fill="white">
    <path
      d="M240.5 151.932C237.893 151.932 235.344 151.159 233.177 149.71C231.009 148.262 229.319 146.203 228.322 143.795C227.324 141.386 227.063 138.736 227.572 136.179C228.08 133.622 229.336 131.273 231.179 129.43C233.023 127.587 235.371 126.331 237.928 125.823C240.485 125.314 243.135 125.575 245.544 126.573C247.952 127.57 250.011 129.26 251.459 131.427C252.908 133.595 253.681 136.144 253.681 138.751C253.681 142.246 252.292 145.599 249.82 148.071C247.348 150.543 243.996 151.932 240.5 151.932ZM240.5 127.766C238.327 127.766 236.203 128.41 234.397 129.617C232.591 130.824 231.183 132.54 230.351 134.547C229.52 136.554 229.302 138.763 229.726 140.894C230.15 143.024 231.196 144.982 232.733 146.518C234.269 148.054 236.226 149.1 238.357 149.524C240.487 149.948 242.696 149.73 244.703 148.899C246.71 148.067 248.426 146.66 249.633 144.853C250.84 143.047 251.484 140.923 251.484 138.751C251.484 135.837 250.327 133.043 248.267 130.983C246.207 128.923 243.413 127.766 240.5 127.766Z" />
    <path
      d="M240.5 145.341C239.196 145.341 237.922 144.955 236.838 144.23C235.754 143.506 234.91 142.477 234.411 141.273C233.912 140.068 233.781 138.743 234.036 137.465C234.29 136.186 234.918 135.012 235.839 134.09C236.761 133.169 237.935 132.541 239.214 132.287C240.492 132.032 241.817 132.163 243.022 132.662C244.226 133.16 245.255 134.005 245.98 135.089C246.704 136.173 247.09 137.447 247.09 138.751C247.09 140.499 246.396 142.175 245.16 143.411C243.924 144.647 242.248 145.341 240.5 145.341ZM240.5 134.357C239.631 134.357 238.781 134.615 238.059 135.097C237.336 135.58 236.773 136.266 236.44 137.069C236.108 137.872 236.021 138.755 236.19 139.608C236.36 140.46 236.778 141.243 237.393 141.857C238.007 142.472 238.79 142.89 239.642 143.06C240.495 143.229 241.378 143.142 242.181 142.81C242.984 142.477 243.67 141.914 244.153 141.192C244.636 140.469 244.893 139.62 244.893 138.751C244.893 137.585 244.43 136.468 243.606 135.644C242.783 134.82 241.665 134.357 240.5 134.357Z" />
    <path
      d="M240.5 140.947C241.713 140.947 242.697 139.964 242.697 138.751C242.697 137.537 241.713 136.554 240.5 136.554C239.286 136.554 238.303 137.537 238.303 138.751C238.303 139.964 239.286 140.947 240.5 140.947Z" />
  </mask>
  <path
    d="M240.5 151.932C237.893 151.932 235.344 151.159 233.177 149.71C231.009 148.262 229.319 146.203 228.322 143.795C227.324 141.386 227.063 138.736 227.572 136.179C228.08 133.622 229.336 131.273 231.179 129.43C233.023 127.587 235.371 126.331 237.928 125.823C240.485 125.314 243.135 125.575 245.544 126.573C247.952 127.57 250.011 129.26 251.459 131.427C252.908 133.595 253.681 136.144 253.681 138.751C253.681 142.246 252.292 145.599 249.82 148.071C247.348 150.543 243.996 151.932 240.5 151.932ZM240.5 127.766C238.327 127.766 236.203 128.41 234.397 129.617C232.591 130.824 231.183 132.54 230.351 134.547C229.52 136.554 229.302 138.763 229.726 140.894C230.15 143.024 231.196 144.982 232.733 146.518C234.269 148.054 236.226 149.1 238.357 149.524C240.487 149.948 242.696 149.73 244.703 148.899C246.71 148.067 248.426 146.66 249.633 144.853C250.84 143.047 251.484 140.923 251.484 138.751C251.484 135.837 250.327 133.043 248.267 130.983C246.207 128.923 243.413 127.766 240.5 127.766Z"
    fill="#0A1214" />
  <path
    d="M240.5 145.341C239.196 145.341 237.922 144.955 236.838 144.23C235.754 143.506 234.91 142.477 234.411 141.273C233.912 140.068 233.781 138.743 234.036 137.465C234.29 136.186 234.918 135.012 235.839 134.09C236.761 133.169 237.935 132.541 239.214 132.287C240.492 132.032 241.817 132.163 243.022 132.662C244.226 133.16 245.255 134.005 245.98 135.089C246.704 136.173 247.09 137.447 247.09 138.751C247.09 140.499 246.396 142.175 245.16 143.411C243.924 144.647 242.248 145.341 240.5 145.341ZM240.5 134.357C239.631 134.357 238.781 134.615 238.059 135.097C237.336 135.58 236.773 136.266 236.44 137.069C236.108 137.872 236.021 138.755 236.19 139.608C236.36 140.46 236.778 141.243 237.393 141.857C238.007 142.472 238.79 142.89 239.642 143.06C240.495 143.229 241.378 143.142 242.181 142.81C242.984 142.477 243.67 141.914 244.153 141.192C244.636 140.469 244.893 139.62 244.893 138.751C244.893 137.585 244.43 136.468 243.606 135.644C242.783 134.82 241.665 134.357 240.5 134.357Z"
    fill="#0A1214" />
  <path
    d="M240.5 140.947C241.713 140.947 242.697 139.964 242.697 138.751C242.697 137.537 241.713 136.554 240.5 136.554C239.286 136.554 238.303 137.537 238.303 138.751C238.303 139.964 239.286 140.947 240.5 140.947Z"
    fill="#0A1214" />
  <path
    d="M240.5 151.932C237.893 151.932 235.344 151.159 233.177 149.71C231.009 148.262 229.319 146.203 228.322 143.795C227.324 141.386 227.063 138.736 227.572 136.179C228.08 133.622 229.336 131.273 231.179 129.43C233.023 127.587 235.371 126.331 237.928 125.823C240.485 125.314 243.135 125.575 245.544 126.573C247.952 127.57 250.011 129.26 251.459 131.427C252.908 133.595 253.681 136.144 253.681 138.751C253.681 142.246 252.292 145.599 249.82 148.071C247.348 150.543 243.996 151.932 240.5 151.932ZM240.5 127.766C238.327 127.766 236.203 128.41 234.397 129.617C232.591 130.824 231.183 132.54 230.351 134.547C229.52 136.554 229.302 138.763 229.726 140.894C230.15 143.024 231.196 144.982 232.733 146.518C234.269 148.054 236.226 149.1 238.357 149.524C240.487 149.948 242.696 149.73 244.703 148.899C246.71 148.067 248.426 146.66 249.633 144.853C250.84 143.047 251.484 140.923 251.484 138.751C251.484 135.837 250.327 133.043 248.267 130.983C246.207 128.923 243.413 127.766 240.5 127.766Z"
    stroke="#0A1214" stroke-width="2" mask="url(#path-2-inside-1_1549_362)" />
  <path
    d="M240.5 145.341C239.196 145.341 237.922 144.955 236.838 144.23C235.754 143.506 234.91 142.477 234.411 141.273C233.912 140.068 233.781 138.743 234.036 137.465C234.29 136.186 234.918 135.012 235.839 134.09C236.761 133.169 237.935 132.541 239.214 132.287C240.492 132.032 241.817 132.163 243.022 132.662C244.226 133.16 245.255 134.005 245.98 135.089C246.704 136.173 247.09 137.447 247.09 138.751C247.09 140.499 246.396 142.175 245.16 143.411C243.924 144.647 242.248 145.341 240.5 145.341ZM240.5 134.357C239.631 134.357 238.781 134.615 238.059 135.097C237.336 135.58 236.773 136.266 236.44 137.069C236.108 137.872 236.021 138.755 236.19 139.608C236.36 140.46 236.778 141.243 237.393 141.857C238.007 142.472 238.79 142.89 239.642 143.06C240.495 143.229 241.378 143.142 242.181 142.81C242.984 142.477 243.67 141.914 244.153 141.192C244.636 140.469 244.893 139.62 244.893 138.751C244.893 137.585 244.43 136.468 243.606 135.644C242.783 134.82 241.665 134.357 240.5 134.357Z"
    stroke="#0A1214" stroke-width="2" mask="url(#path-2-inside-1_1549_362)" />
  <path
    d="M240.5 140.947C241.713 140.947 242.697 139.964 242.697 138.751C242.697 137.537 241.713 136.554 240.5 136.554C239.286 136.554 238.303 137.537 238.303 138.751C238.303 139.964 239.286 140.947 240.5 140.947Z"
    stroke="#0A1214" stroke-width="2" mask="url(#path-2-inside-1_1549_362)" />
  <circle cx="240.5" cy="240.5" r="36.6" fill="url(#paint0_radial_1549_362)" stroke="#0A1214" stroke-width="0.8" />
  <path
    d="M240.5 240.5C244.333 240.5 247.437 237.395 247.437 233.562C247.437 229.729 244.333 226.625 240.5 226.625C236.667 226.625 233.562 229.729 233.562 233.562C233.562 237.395 236.667 240.5 240.5 240.5ZM240.5 243.968C235.869 243.968 226.625 246.292 226.625 250.906V253.053C226.625 253.783 227.216 254.375 227.946 254.375H240.5H253.053C253.783 254.375 254.375 253.783 254.375 253.053V250.906C254.375 246.292 245.13 243.968 240.5 243.968Z"
    fill="#0A1214" />
  <circle cx="240.5" cy="342.25" r="36.6" fill="#43FFA8" stroke="#0A1214" stroke-width="0.8" />
  <mask id="path-6-inside-2_1549_362" fill="white">
    <path
      d="M241.367 337.914C241.367 337.224 241.641 336.562 242.129 336.074C242.617 335.586 243.278 335.312 243.968 335.312H244.055C244.27 336.365 244.868 337.301 245.734 337.937C246.599 338.574 247.67 338.867 248.739 338.759C249.808 338.651 250.799 338.15 251.52 337.353C252.24 336.556 252.639 335.52 252.639 334.445C252.639 333.371 252.24 332.334 251.52 331.537C250.799 330.74 249.808 330.239 248.739 330.131C247.67 330.023 246.599 330.316 245.734 330.953C244.868 331.59 244.27 332.525 244.055 333.578H243.968C242.818 333.578 241.716 334.035 240.902 334.848C240.089 335.661 239.632 336.764 239.632 337.914V338.781H237.898C237.208 338.781 236.546 338.507 236.058 338.019C235.571 337.531 235.297 336.869 235.297 336.179V334.445C235.297 333.295 234.84 332.192 234.027 331.379C233.213 330.566 232.111 330.109 230.961 330.109H230.093V331.844H230.961C231.651 331.844 232.312 332.118 232.8 332.605C233.288 333.093 233.562 333.755 233.562 334.445V336.179C233.562 337.329 234.019 338.432 234.832 339.245C235.645 340.059 236.748 340.515 237.898 340.515H239.632V346.586C239.632 347.276 239.358 347.937 238.87 348.425C238.383 348.913 237.721 349.187 237.031 349.187H236.944C236.729 348.134 236.131 347.199 235.266 346.562C234.4 345.925 233.329 345.632 232.26 345.74C231.191 345.848 230.2 346.35 229.479 347.147C228.759 347.944 228.36 348.98 228.36 350.054C228.36 351.129 228.759 352.165 229.479 352.962C230.2 353.759 231.191 354.26 232.26 354.368C233.329 354.476 234.4 354.184 235.266 353.547C236.131 352.91 236.729 351.974 236.944 350.922H237.031C238.181 350.922 239.284 350.465 240.097 349.652C240.91 348.839 241.367 347.736 241.367 346.586H243.535C244.11 346.586 244.661 346.814 245.068 347.221C245.474 347.627 245.703 348.179 245.703 348.754C245.705 349.788 246.117 350.779 246.848 351.511C247.58 352.242 248.571 352.654 249.605 352.656H250.906V350.922H249.605C249.03 350.922 248.479 350.693 248.072 350.287C247.666 349.88 247.437 349.329 247.437 348.754C247.435 347.719 247.023 346.728 246.292 345.997C245.56 345.265 244.569 344.854 243.535 344.851H241.367V337.914ZM248.304 331.844C248.819 331.844 249.322 331.996 249.75 332.282C250.177 332.568 250.511 332.974 250.708 333.45C250.905 333.925 250.956 334.448 250.856 334.953C250.756 335.457 250.508 335.921 250.144 336.285C249.78 336.648 249.317 336.896 248.812 336.997C248.307 337.097 247.784 337.046 247.309 336.849C246.833 336.652 246.427 336.318 246.141 335.89C245.855 335.463 245.703 334.96 245.703 334.445C245.703 333.755 245.977 333.093 246.465 332.605C246.953 332.118 247.614 331.844 248.304 331.844ZM232.695 352.656C232.18 352.656 231.677 352.503 231.25 352.218C230.822 351.932 230.488 351.525 230.291 351.05C230.095 350.575 230.043 350.052 230.143 349.547C230.244 349.042 230.492 348.579 230.855 348.215C231.219 347.851 231.683 347.603 232.187 347.503C232.692 347.402 233.215 347.454 233.691 347.651C234.166 347.848 234.572 348.181 234.858 348.609C235.144 349.037 235.297 349.54 235.297 350.054C235.297 350.744 235.022 351.406 234.535 351.894C234.047 352.382 233.385 352.656 232.695 352.656Z" />
  </mask>
  <path
    d="M241.367 337.914C241.367 337.224 241.641 336.562 242.129 336.074C242.617 335.586 243.278 335.312 243.968 335.312H244.055C244.27 336.365 244.868 337.301 245.734 337.937C246.599 338.574 247.67 338.867 248.739 338.759C249.808 338.651 250.799 338.15 251.52 337.353C252.24 336.556 252.639 335.52 252.639 334.445C252.639 333.371 252.24 332.334 251.52 331.537C250.799 330.74 249.808 330.239 248.739 330.131C247.67 330.023 246.599 330.316 245.734 330.953C244.868 331.59 244.27 332.525 244.055 333.578H243.968C242.818 333.578 241.716 334.035 240.902 334.848C240.089 335.661 239.632 336.764 239.632 337.914V338.781H237.898C237.208 338.781 236.546 338.507 236.058 338.019C235.571 337.531 235.297 336.869 235.297 336.179V334.445C235.297 333.295 234.84 332.192 234.027 331.379C233.213 330.566 232.111 330.109 230.961 330.109H230.093V331.844H230.961C231.651 331.844 232.312 332.118 232.8 332.605C233.288 333.093 233.562 333.755 233.562 334.445V336.179C233.562 337.329 234.019 338.432 234.832 339.245C235.645 340.059 236.748 340.515 237.898 340.515H239.632V346.586C239.632 347.276 239.358 347.937 238.87 348.425C238.383 348.913 237.721 349.187 237.031 349.187H236.944C236.729 348.134 236.131 347.199 235.266 346.562C234.4 345.925 233.329 345.632 232.26 345.74C231.191 345.848 230.2 346.35 229.479 347.147C228.759 347.944 228.36 348.98 228.36 350.054C228.36 351.129 228.759 352.165 229.479 352.962C230.2 353.759 231.191 354.26 232.26 354.368C233.329 354.476 234.4 354.184 235.266 353.547C236.131 352.91 236.729 351.974 236.944 350.922H237.031C238.181 350.922 239.284 350.465 240.097 349.652C240.91 348.839 241.367 347.736 241.367 346.586H243.535C244.11 346.586 244.661 346.814 245.068 347.221C245.474 347.627 245.703 348.179 245.703 348.754C245.705 349.788 246.117 350.779 246.848 351.511C247.58 352.242 248.571 352.654 249.605 352.656H250.906V350.922H249.605C249.03 350.922 248.479 350.693 248.072 350.287C247.666 349.88 247.437 349.329 247.437 348.754C247.435 347.719 247.023 346.728 246.292 345.997C245.56 345.265 244.569 344.854 243.535 344.851H241.367V337.914ZM248.304 331.844C248.819 331.844 249.322 331.996 249.75 332.282C250.177 332.568 250.511 332.974 250.708 333.45C250.905 333.925 250.956 334.448 250.856 334.953C250.756 335.457 250.508 335.921 250.144 336.285C249.78 336.648 249.317 336.896 248.812 336.997C248.307 337.097 247.784 337.046 247.309 336.849C246.833 336.652 246.427 336.318 246.141 335.89C245.855 335.463 245.703 334.96 245.703 334.445C245.703 333.755 245.977 333.093 246.465 332.605C246.953 332.118 247.614 331.844 248.304 331.844ZM232.695 352.656C232.18 352.656 231.677 352.503 231.25 352.218C230.822 351.932 230.488 351.525 230.291 351.05C230.095 350.575 230.043 350.052 230.143 349.547C230.244 349.042 230.492 348.579 230.855 348.215C231.219 347.851 231.683 347.603 232.187 347.503C232.692 347.402 233.215 347.454 233.691 347.651C234.166 347.848 234.572 348.181 234.858 348.609C235.144 349.037 235.297 349.54 235.297 350.054C235.297 350.744 235.022 351.406 234.535 351.894C234.047 352.382 233.385 352.656 232.695 352.656Z"
    fill="#0A1214" stroke="#0A1214" stroke-width="2" mask="url(#path-6-inside-2_1549_362)" />
  <path d="M240.038 203.962L240.038 175.75M240.038 175.75L237.263 178.987M240.038 175.75L242.813 178.987"
    stroke="#0A1214" stroke-width="0.8" stroke-linecap="round" stroke-linejoin="round" />
  <path d="M277.5 240.5L305.712 240.5M305.712 240.5L302.475 237.725M305.712 240.5L302.475 243.275" stroke="#0A1214"
    stroke-width="0.8" stroke-linecap="round" stroke-linejoin="round" />
  <path d="M240.038 277.5L240.038 305.25M240.038 305.25L242.813 302.012M240.038 305.25L237.263 302.012" stroke="#0A1214"
    stroke-width="0.8" stroke-linecap="round" stroke-linejoin="round" />
  <circle cx="342.25" cy="240.5" r="36.6" fill="#0A1214" stroke="#0A1214" stroke-width="0.8" />
  <path
    d="M353.437 234.661H348.957V236.453H353.437V241.83H347.164V243.622H349.853V245.542C349.008 245.76 348.272 246.278 347.782 247C347.293 247.722 347.083 248.598 347.193 249.464C347.303 250.329 347.725 251.125 348.379 251.702C349.034 252.278 349.876 252.596 350.749 252.596C351.621 252.596 352.464 252.278 353.118 251.702C353.773 251.125 354.195 250.329 354.305 249.464C354.415 248.598 354.205 247.722 353.715 247C353.226 246.278 352.49 245.76 351.645 245.542V243.622H353.437C353.912 243.621 354.368 243.432 354.704 243.096C355.04 242.761 355.229 242.305 355.229 241.83V236.453C355.229 235.978 355.04 235.523 354.704 235.187C354.368 234.851 353.912 234.662 353.437 234.661ZM352.541 248.999C352.541 249.353 352.436 249.7 352.239 249.994C352.042 250.289 351.762 250.519 351.435 250.654C351.107 250.79 350.747 250.826 350.399 250.756C350.051 250.687 349.732 250.517 349.482 250.266C349.231 250.015 349.06 249.696 348.991 249.348C348.922 249.001 348.957 248.64 349.093 248.313C349.229 247.985 349.458 247.705 349.753 247.509C350.048 247.312 350.394 247.206 350.749 247.206C351.224 247.207 351.679 247.396 352.015 247.732C352.351 248.068 352.54 248.524 352.541 248.999Z"
    fill="white" />
  <path
    d="M344.476 231.077H339.996V232.869H344.476V238.246H338.203V240.038H340.892V245.542C340.047 245.76 339.311 246.278 338.821 247C338.332 247.722 338.122 248.598 338.232 249.464C338.342 250.329 338.764 251.125 339.418 251.702C340.073 252.278 340.915 252.596 341.788 252.596C342.66 252.596 343.503 252.278 344.157 251.702C344.812 251.125 345.234 250.329 345.344 249.464C345.454 248.598 345.244 247.722 344.754 247C344.265 246.278 343.529 245.76 342.684 245.542V240.038H344.476C344.951 240.037 345.407 239.848 345.743 239.512C346.079 239.176 346.268 238.721 346.268 238.246V232.869C346.268 232.394 346.079 231.938 345.743 231.602C345.407 231.266 344.951 231.077 344.476 231.077ZM343.58 248.999C343.58 249.353 343.475 249.7 343.278 249.994C343.081 250.289 342.801 250.519 342.474 250.654C342.146 250.79 341.786 250.826 341.438 250.756C341.091 250.687 340.771 250.517 340.521 250.266C340.27 250.015 340.099 249.696 340.03 249.348C339.961 249.001 339.996 248.64 340.132 248.313C340.268 247.985 340.497 247.705 340.792 247.509C341.087 247.312 341.433 247.206 341.788 247.206C342.263 247.207 342.718 247.396 343.054 247.732C343.39 248.068 343.579 248.524 343.58 248.999Z"
    fill="white" />
  <path
    d="M335.515 227.492H330.139C329.663 227.493 329.208 227.682 328.872 228.018C328.536 228.354 328.347 228.809 328.346 229.285V234.661C328.347 235.136 328.536 235.592 328.872 235.928C329.208 236.264 329.663 236.453 330.139 236.453H331.931V245.542C331.086 245.76 330.35 246.278 329.86 247C329.371 247.722 329.161 248.598 329.271 249.464C329.381 250.329 329.803 251.125 330.457 251.702C331.112 252.278 331.954 252.596 332.827 252.596C333.699 252.596 334.542 252.278 335.196 251.702C335.851 251.125 336.273 250.329 336.383 249.464C336.493 248.598 336.283 247.722 335.794 247C335.304 246.278 334.568 245.76 333.723 245.542V236.453H335.515C335.99 236.453 336.446 236.264 336.782 235.928C337.118 235.592 337.307 235.136 337.307 234.661V229.285C337.307 228.809 337.118 228.354 336.782 228.018C336.446 227.682 335.99 227.493 335.515 227.492ZM334.619 248.999C334.619 249.353 334.514 249.7 334.317 249.994C334.12 250.289 333.84 250.519 333.513 250.654C333.185 250.79 332.825 250.826 332.477 250.756C332.13 250.687 331.81 250.517 331.56 250.266C331.309 250.015 331.138 249.696 331.069 249.348C331 249.001 331.035 248.64 331.171 248.313C331.307 247.985 331.536 247.705 331.831 247.509C332.126 247.312 332.472 247.206 332.827 247.206C333.302 247.207 333.758 247.396 334.094 247.732C334.43 248.068 334.619 248.524 334.619 248.999ZM330.139 234.661V229.285H335.515L335.517 234.661H330.139Z"
    fill="white" />
  <defs>
    <radialGradient id="paint0_radial_1549_362" cx="0" cy="0" r="1" gradientUnits="userSpaceOnUse"
      gradientTransform="translate(240.5 240.5) rotate(90) scale(37)">
      <stop offset="0.536458" stop-color="white" stop-opacity="0" />
      <stop offset="1" stop-color="#34DBFF" stop-opacity="0.4" />
    </radialGradient>
  </defs>
</svg>