<svg width="22" height="23" viewBox="0 0 22 23" fill="none" xmlns="http://www.w3.org/2000/svg">
  <rect width="22" height="22" transform="translate(0 0.499756)" fill="white" style="mix-blend-mode:multiply" />
  <path d="M7.5625 16.3123H4.125V17.6873H7.5625V16.3123Z" fill="#3A3B3C" />
  <path d="M7.5625 13.5623H4.125V14.9373H7.5625V13.5623Z" fill="#3A3B3C" />
  <path
    d="M8.9375 21.1248H2.75C1.99375 21.1248 1.375 20.506 1.375 19.7498V12.1873C1.375 11.431 1.99375 10.8123 2.75 10.8123H8.9375C9.69375 10.8123 10.3125 11.431 10.3125 12.1873V19.7498C10.3125 20.506 9.69375 21.1248 8.9375 21.1248ZM2.75 12.1873V19.7498H8.9375V12.1873H2.75Z"
    fill="#3A3B3C" />
  <path d="M18.5625 1.87476H13.0625V3.24976H18.5625V1.87476Z" fill="#3A3B3C" />
  <path d="M20.625 4.62476H15.125V5.99976H20.625V4.62476Z" fill="#3A3B3C" />
  <path d="M20.625 7.37476H15.125V8.74976H20.625V7.37476Z" fill="#3A3B3C" />
  <path d="M18.5625 10.1248H13.0625V11.4998H18.5625V10.1248Z" fill="#3A3B3C" />
  <path d="M20.625 12.8748H15.125V14.2498H20.625V12.8748Z" fill="#3A3B3C" />
  <path
    d="M8.25 1.18726L7.2875 2.14976L9.075 3.93726H2.75C1.99375 3.93726 1.375 4.55601 1.375 5.31226V8.74976H2.75V5.31226H9.075L7.2875 7.09976L8.25 8.06226L11.6875 4.62476L8.25 1.18726Z"
    fill="#3A3B3C" />
</svg>