<svg width="80" height="21" viewBox="0 0 80 21" fill="none" xmlns="http://www.w3.org/2000/svg">
  <path fill-rule="evenodd" clip-rule="evenodd"
    d="M0.933994 16.4116H3.57078V14.5434H1.87752V2.50451H11.7353C14.4038 2.50451 16.2686 3.99467 17.3202 6.06628C17.9045 7.24893 18.252 8.53444 18.3431 9.85046C18.4507 11.1933 18.3129 12.5445 17.9365 13.838C17.2058 16.2782 15.5507 18.2767 13.0092 18.7215C12.0271 18.842 11.0365 18.8771 10.0484 18.8264C9.51783 18.8073 8.96824 18.8073 8.70456 18.8073V20.6851H10.0198C11.1237 20.7438 12.2307 20.7012 13.3269 20.558C16.6784 19.9766 18.8101 17.4442 19.7314 14.3654C20.1819 12.8543 20.352 11.2735 20.2333 9.70113C20.1224 8.1375 19.708 6.61044 19.0134 5.20522C17.6569 2.52357 15.2489 0.617188 11.7543 0.617188H0V16.4116H0.933994ZM11.2682 4.94113H4.59677L4.58724 6.83163H4.59677V14.5334H4.58724V16.4049L4.59677 16.4049V18.8228L0.101537 18.7974L0.107891 20.6688L5.53712 20.6879L6.47429 20.6784V16.4103C8.48324 16.4141 10.392 16.4107 10.817 16.389H10.9123L10.9198 16.3886C12.2191 16.328 15.8301 16.1595 15.8301 10.7683C15.8174 5.25886 11.284 4.94113 11.2682 4.94113ZM6.47429 14.5334H10.7217H10.8202C11.6462 14.4953 13.9621 14.3873 13.9558 10.7842C13.9558 7.26692 11.4937 6.86976 11.1633 6.83163H6.47429V14.5334Z"
    fill="#0C1719" />
  <path fill-rule="evenodd" clip-rule="evenodd"
    d="M79.4565 13.6948V9.38601C79.4668 8.93564 79.3942 8.48789 79.2436 8.07259C79.0929 7.65728 78.8676 7.28396 78.5827 6.97749C78.2978 6.66191 77.962 6.41458 77.5945 6.24964C77.2271 6.0847 76.8351 6.0054 76.4412 6.01629H71.6751C70.8796 5.99512 70.1093 6.34084 69.5336 6.97749C69.2487 7.28396 69.0234 7.65728 68.8727 8.07259C68.7221 8.48789 68.6495 8.93564 68.6598 9.38601V13.6948C68.6493 14.1452 68.7218 14.5931 68.8724 15.0084C69.0231 15.4237 69.2485 15.797 69.5336 16.1034C70.1093 16.74 70.8796 17.0857 71.6751 17.0646H76.4412C76.8351 17.0754 77.2271 16.9961 77.5945 16.8312C77.962 16.6663 78.2978 16.4189 78.5827 16.1034C78.8678 15.797 79.0932 15.4237 79.2439 15.0084C79.3946 14.5931 79.467 14.1452 79.4565 13.6948ZM77.6835 13.6948C77.6835 14.5897 77.1815 15.0133 76.4412 15.0133H71.6751C70.9348 15.0133 70.4328 14.5897 70.4328 13.6948V9.38969C70.4328 8.49478 70.9348 8.07127 71.6751 8.07127H76.4412C77.1815 8.07127 77.6835 8.49478 77.6835 9.38969V13.6948Z"
    fill="#0C1719" />
  <path fill-rule="evenodd" clip-rule="evenodd"
    d="M55.8074 6.00156V8.05653H63.0613C63.7985 8.05653 64.2655 8.49846 64.2655 9.37496V13.6764C64.2655 14.5529 63.7985 14.9948 63.0613 14.9948H57.5962V10.3546H55.8233V17.0498H63.0613C63.4534 17.0612 63.8435 16.9821 64.209 16.817C64.5745 16.652 64.908 16.4044 65.1901 16.0886C65.4732 15.781 65.6966 15.4072 65.8456 14.992C65.9945 14.5768 66.0657 14.1296 66.0544 13.6801V9.37127C66.0657 8.92177 65.9945 8.4746 65.8456 8.05938C65.6966 7.64416 65.4732 7.27036 65.1901 6.96275C64.908 6.64696 64.5745 6.39934 64.209 6.23433C63.8435 6.06931 63.4534 5.99019 63.0613 6.00156H55.8074Z"
    fill="#0C1719" />
  <path fill-rule="evenodd" clip-rule="evenodd"
    d="M53.1861 17.0498V9.27921C53.2017 8.42614 52.9436 7.59671 52.4616 6.95171C52.234 6.64159 51.9489 6.39507 51.6276 6.23054C51.3063 6.06602 50.9571 5.98774 50.6061 6.00156H45.087C44.7393 5.98924 44.3938 6.06832 44.0763 6.23288C43.7588 6.39743 43.4775 6.64319 43.2536 6.95171C42.7695 7.59544 42.51 8.42542 42.526 9.27921V17.0498H44.3022V9.31604C44.3022 8.71575 44.4801 8.086 45.087 8.086H50.6061C51.2193 8.086 51.4131 8.70102 51.4131 9.31604V11.3047H46.3675V13.3597H51.4131V17.0498H53.1861Z"
    fill="#0C1719" />
  <path fill-rule="evenodd" clip-rule="evenodd"
    d="M29 6.00156V8.04549C32.1774 8.04549 34.1632 8.04549 37.3342 8.04549C38.0396 8.04549 38.1413 8.99932 38.1413 9.6217C38.1413 10.2441 38.0332 11.1721 37.3342 11.1721H29V17.0498H30.773V13.2529H37.3247C37.6983 13.2664 38.0688 13.1706 38.402 12.9743C38.7352 12.778 39.0204 12.4875 39.2311 12.1297C39.6971 11.417 39.9392 10.5413 39.9174 9.64748C39.9363 8.74334 39.6936 7.85789 39.2279 7.13216C39.0168 6.78041 38.7334 6.49519 38.4034 6.30229C38.0733 6.10938 37.7069 6.01489 37.3374 6.02734L29 6.00156Z"
    fill="#0C1719" />
</svg>