<svg width="80" height="21" viewBox="0 0 80 21" fill="none" xmlns="http://www.w3.org/2000/svg">
  <path fill-rule="evenodd" clip-rule="evenodd"
    d="M0.933994 15.7944H3.57078V13.9262H1.87752V1.88732H11.7353C14.4038 1.88732 16.2686 3.37748 17.3202 5.44909C17.9045 6.63174 18.252 7.91725 18.3431 9.23327C18.4507 10.5761 18.3129 11.9273 17.9365 13.2208C17.2058 15.661 15.5507 17.6595 13.0092 18.1043C12.0271 18.2248 11.0365 18.2599 10.0484 18.2092C9.51783 18.1901 8.96824 18.1901 8.70456 18.1901V20.0679H10.0198C11.1237 20.1266 12.2307 20.0841 13.3269 19.9408C16.6784 19.3594 18.8101 16.827 19.7314 13.7482C20.1819 12.2371 20.352 10.6563 20.2333 9.08394C20.1224 7.52031 19.708 5.99326 19.0134 4.58804C17.6569 1.90638 15.2489 0 11.7543 0H0V15.7944H0.933994ZM11.2682 4.32394H4.59677L4.58724 6.21444H4.59677V13.9162H4.58724V15.7877L4.59677 15.7877V18.2056L0.101537 18.1802L0.107891 20.0516L5.53712 20.0707L6.47429 20.0612V15.7931C8.48324 15.7969 10.392 15.7935 10.817 15.7718H10.9123L10.9198 15.7715C12.2191 15.7108 15.8301 15.5423 15.8301 10.1511C15.8174 4.64167 11.284 4.32394 11.2682 4.32394ZM6.47429 13.9162H10.7217H10.8202C11.6462 13.8781 13.9621 13.7701 13.9558 10.167C13.9558 6.64974 11.4937 6.25257 11.1633 6.21444H6.47429V13.9162Z"
    fill="white" />
  <path fill-rule="evenodd" clip-rule="evenodd"
    d="M79.4565 13.0776V8.76882C79.4668 8.31846 79.3942 7.8707 79.2436 7.4554C79.0929 7.04009 78.8676 6.66677 78.5827 6.3603C78.2978 6.04473 77.962 5.79739 77.5945 5.63245C77.2271 5.46752 76.8351 5.38822 76.4412 5.3991H71.6751C70.8796 5.37793 70.1093 5.72365 69.5336 6.3603C69.2487 6.66677 69.0234 7.04009 68.8727 7.4554C68.7221 7.8707 68.6495 8.31846 68.6598 8.76882V13.0776C68.6493 13.528 68.7218 13.9759 68.8724 14.3912C69.0231 14.8065 69.2485 15.1798 69.5336 15.4862C70.1093 16.1228 70.8796 16.4685 71.6751 16.4474H76.4412C76.8351 16.4582 77.2271 16.379 77.5945 16.214C77.962 16.0491 78.2978 15.8017 78.5827 15.4862C78.8678 15.1798 79.0932 14.8065 79.2439 14.3912C79.3946 13.9759 79.467 13.528 79.4565 13.0776ZM77.6835 13.0776C77.6835 13.9726 77.1815 14.3961 76.4412 14.3961H71.6751C70.9348 14.3961 70.4328 13.9726 70.4328 13.0776V8.7725C70.4328 7.8776 70.9348 7.45408 71.6751 7.45408H76.4412C77.1815 7.45408 77.6835 7.8776 77.6835 8.7725V13.0776Z"
    fill="white" />
  <path fill-rule="evenodd" clip-rule="evenodd"
    d="M55.8074 5.38437V7.43935H63.0613C63.7985 7.43935 64.2655 7.88128 64.2655 8.75777V13.0592C64.2655 13.9357 63.7985 14.3777 63.0613 14.3777H57.5962V9.73739H55.8233V16.4326H63.0613C63.4534 16.444 63.8435 16.3649 64.209 16.1999C64.5745 16.0348 64.908 15.7872 65.1901 15.4714C65.4732 15.1638 65.6966 14.79 65.8456 14.3748C65.9945 13.9596 66.0657 13.5124 66.0544 13.0629V8.75409C66.0657 8.30458 65.9945 7.85741 65.8456 7.44219C65.6966 7.02697 65.4732 6.65317 65.1901 6.34557C64.908 6.02977 64.5745 5.78216 64.209 5.61714C63.8435 5.45213 63.4534 5.373 63.0613 5.38437H55.8074Z"
    fill="white" />
  <path fill-rule="evenodd" clip-rule="evenodd"
    d="M53.1861 16.4326V8.66202C53.2017 7.80895 52.9436 6.97952 52.4616 6.33452C52.234 6.0244 51.9489 5.77788 51.6276 5.61336C51.3063 5.44883 50.9571 5.37055 50.6061 5.38437H45.087C44.7393 5.37205 44.3938 5.45113 44.0763 5.61569C43.7588 5.78024 43.4775 6.026 43.2536 6.33452C42.7695 6.97825 42.51 7.80823 42.526 8.66202V16.4326H44.3022V8.69885C44.3022 8.09856 44.4801 7.46881 45.087 7.46881H50.6061C51.2193 7.46881 51.4131 8.08383 51.4131 8.69885V10.6875H46.3675V12.7425H51.4131V16.4326H53.1861Z"
    fill="white" />
  <path fill-rule="evenodd" clip-rule="evenodd"
    d="M29 5.38437V7.4283C32.1774 7.4283 34.1632 7.4283 37.3342 7.4283C38.0396 7.4283 38.1413 8.38213 38.1413 9.00452C38.1413 9.6269 38.0332 10.555 37.3342 10.555H29V16.4326H30.773V12.6357H37.3247C37.6983 12.6492 38.0688 12.5534 38.402 12.3571C38.7352 12.1608 39.0204 11.8703 39.2311 11.5125C39.6971 10.7998 39.9392 9.92413 39.9174 9.03029C39.9363 8.12615 39.6936 7.2407 39.2279 6.51498C39.0168 6.16323 38.7334 5.878 38.4034 5.6851C38.0733 5.4922 37.7069 5.3977 37.3374 5.41015L29 5.38437Z"
    fill="white" />
</svg>