<svg width="64" height="64" viewBox="0 0 64 64" fill="none" xmlns="http://www.w3.org/2000/svg">
  <path
    d="M2.71825 6.89844H43.4369C43.7786 6.89844 44.0555 7.17541 44.0555 7.51708V35.7069C44.0555 36.0486 43.7786 36.3256 43.4369 36.3256H2.71825C2.37659 36.3256 2.09961 36.0486 2.09961 35.7069V7.51708C2.09961 7.17541 2.37659 6.89844 2.71825 6.89844Z"
    stroke="#6A7C89" stroke-miterlimit="10" />
  <path
    d="M18.7183 29.3008H59.4369C59.7786 29.3008 60.0555 29.5778 60.0555 29.9194V58.1093C60.0555 58.4509 59.7786 58.7279 59.4369 58.7279H18.7183C18.3766 58.7279 18.0996 58.4509 18.0996 58.1093V29.9194C18.0996 29.5778 18.3766 29.3008 18.7183 29.3008Z"
    stroke="#6A7C89" stroke-miterlimit="10" />
  <path
    d="M16.5 6.89844H46.8814C47.223 6.89844 47.5 7.17541 47.5 7.51708V58.6984H17.1186C16.777 58.6984 16.5 58.4215 16.5 58.0798V6.89844Z"
    fill="url(#paint0_linear_1077_1102)" stroke="#6A7C89" />
  <mask id="path-4-inside-1_1077_1102" fill="white">
    <path
      d="M31.2004 34.2667H23.8671C23.4781 34.2667 23.105 34.1121 22.83 33.8371C22.5549 33.562 22.4004 33.189 22.4004 32.8V25.4667C22.4004 25.0777 22.5549 24.7046 22.83 24.4296C23.105 24.1545 23.4781 24 23.8671 24H31.2004C31.5894 24 31.9624 24.1545 32.2375 24.4296C32.5125 24.7046 32.6671 25.0777 32.6671 25.4667V32.8C32.6671 33.189 32.5125 33.562 32.2375 33.8371C31.9624 34.1121 31.5894 34.2667 31.2004 34.2667ZM23.8671 25.4667V32.8H31.2004V25.4667H23.8671Z" />
    <path
      d="M38.5337 29.8667V32.8H35.6004V29.8667H38.5337ZM38.5337 28.4H35.6004C35.2114 28.4 34.8384 28.5545 34.5633 28.8296C34.2882 29.1046 34.1337 29.4777 34.1337 29.8667V32.8C34.1337 33.189 34.2882 33.562 34.5633 33.8371C34.8384 34.1121 35.2114 34.2667 35.6004 34.2667H38.5337C38.9227 34.2667 39.2958 34.1121 39.5708 33.8371C39.8459 33.562 40.0004 33.189 40.0004 32.8V29.8667C40.0004 29.4777 39.8459 29.1046 39.5708 28.8296C39.2958 28.5545 38.9227 28.4 38.5337 28.4Z" />
    <path
      d="M38.5337 37.2V40.1333H35.6004V37.2H38.5337ZM38.5337 35.7333H35.6004C35.2114 35.7333 34.8384 35.8879 34.5633 36.1629C34.2882 36.438 34.1337 36.811 34.1337 37.2V40.1333C34.1337 40.5223 34.2882 40.8954 34.5633 41.1704C34.8384 41.4455 35.2114 41.6 35.6004 41.6H38.5337C38.9227 41.6 39.2958 41.4455 39.5708 41.1704C39.8459 40.8954 40.0004 40.5223 40.0004 40.1333V37.2C40.0004 36.811 39.8459 36.438 39.5708 36.1629C39.2958 35.8879 38.9227 35.7333 38.5337 35.7333Z" />
    <path
      d="M31.2004 37.2V40.1333H28.2671V37.2H31.2004ZM31.2004 35.7333H28.2671C27.8781 35.7333 27.505 35.8879 27.23 36.1629C26.9549 36.438 26.8004 36.811 26.8004 37.2V40.1333C26.8004 40.5223 26.9549 40.8954 27.23 41.1704C27.505 41.4455 27.8781 41.6 28.2671 41.6H31.2004C31.5894 41.6 31.9624 41.4455 32.2375 41.1704C32.5125 40.8954 32.6671 40.5223 32.6671 40.1333V37.2C32.6671 36.811 32.5125 36.438 32.2375 36.1629C31.9624 35.8879 31.5894 35.7333 31.2004 35.7333Z" />
  </mask>
  <path
    d="M31.2004 34.2667H23.8671C23.4781 34.2667 23.105 34.1121 22.83 33.8371C22.5549 33.562 22.4004 33.189 22.4004 32.8V25.4667C22.4004 25.0777 22.5549 24.7046 22.83 24.4296C23.105 24.1545 23.4781 24 23.8671 24H31.2004C31.5894 24 31.9624 24.1545 32.2375 24.4296C32.5125 24.7046 32.6671 25.0777 32.6671 25.4667V32.8C32.6671 33.189 32.5125 33.562 32.2375 33.8371C31.9624 34.1121 31.5894 34.2667 31.2004 34.2667ZM23.8671 25.4667V32.8H31.2004V25.4667H23.8671Z"
    fill="white" />
  <path
    d="M38.5337 29.8667V32.8H35.6004V29.8667H38.5337ZM38.5337 28.4H35.6004C35.2114 28.4 34.8384 28.5545 34.5633 28.8296C34.2882 29.1046 34.1337 29.4777 34.1337 29.8667V32.8C34.1337 33.189 34.2882 33.562 34.5633 33.8371C34.8384 34.1121 35.2114 34.2667 35.6004 34.2667H38.5337C38.9227 34.2667 39.2958 34.1121 39.5708 33.8371C39.8459 33.562 40.0004 33.189 40.0004 32.8V29.8667C40.0004 29.4777 39.8459 29.1046 39.5708 28.8296C39.2958 28.5545 38.9227 28.4 38.5337 28.4Z"
    fill="white" />
  <path
    d="M38.5337 37.2V40.1333H35.6004V37.2H38.5337ZM38.5337 35.7333H35.6004C35.2114 35.7333 34.8384 35.8879 34.5633 36.1629C34.2882 36.438 34.1337 36.811 34.1337 37.2V40.1333C34.1337 40.5223 34.2882 40.8954 34.5633 41.1704C34.8384 41.4455 35.2114 41.6 35.6004 41.6H38.5337C38.9227 41.6 39.2958 41.4455 39.5708 41.1704C39.8459 40.8954 40.0004 40.5223 40.0004 40.1333V37.2C40.0004 36.811 39.8459 36.438 39.5708 36.1629C39.2958 35.8879 38.9227 35.7333 38.5337 35.7333Z"
    fill="white" />
  <path
    d="M31.2004 37.2V40.1333H28.2671V37.2H31.2004ZM31.2004 35.7333H28.2671C27.8781 35.7333 27.505 35.8879 27.23 36.1629C26.9549 36.438 26.8004 36.811 26.8004 37.2V40.1333C26.8004 40.5223 26.9549 40.8954 27.23 41.1704C27.505 41.4455 27.8781 41.6 28.2671 41.6H31.2004C31.5894 41.6 31.9624 41.4455 32.2375 41.1704C32.5125 40.8954 32.6671 40.5223 32.6671 40.1333V37.2C32.6671 36.811 32.5125 36.438 32.2375 36.1629C31.9624 35.8879 31.5894 35.7333 31.2004 35.7333Z"
    fill="white" />
  <path
    d="M22.4004 32.8H8.40039H22.4004ZM23.8671 24V10V24ZM31.2004 24V10V24ZM23.8671 25.4667V11.4667H9.86706V25.4667H23.8671ZM23.8671 32.8H9.86706V46.8H23.8671V32.8ZM31.2004 32.8V46.8H45.2004V32.8H31.2004ZM31.2004 25.4667H45.2004V11.4667H31.2004V25.4667ZM38.5337 29.8667H52.5337V15.8667H38.5337V29.8667ZM38.5337 32.8V46.8H52.5337V32.8H38.5337ZM35.6004 32.8H21.6004V46.8H35.6004V32.8ZM35.6004 29.8667V15.8667H21.6004V29.8667H35.6004ZM38.5337 37.2H52.5337V23.2H38.5337V37.2ZM38.5337 40.1333V54.1333H52.5337V40.1333H38.5337ZM35.6004 40.1333H21.6004V54.1333H35.6004V40.1333ZM35.6004 37.2V23.2H21.6004V37.2H35.6004ZM31.2004 37.2H45.2004V23.2H31.2004V37.2ZM31.2004 40.1333V54.1333H45.2004V40.1333H31.2004ZM28.2671 40.1333H14.2671V54.1333H28.2671V40.1333ZM28.2671 37.2V23.2H14.2671V37.2H28.2671ZM31.2004 20.2667H23.8671V48.2667H31.2004V20.2667ZM23.8671 20.2667C27.1911 20.2667 30.379 21.5872 32.7295 23.9376L12.9305 43.7366C15.831 46.6371 19.765 48.2667 23.8671 48.2667V20.2667ZM32.7295 23.9376C35.0799 26.2881 36.4004 29.476 36.4004 32.8H8.40039C8.40039 36.902 10.0299 40.836 12.9305 43.7366L32.7295 23.9376ZM36.4004 32.8V25.4667H8.40039V32.8H36.4004ZM36.4004 25.4667C36.4004 28.7907 35.0799 31.9786 32.7295 34.3291L12.9305 14.5301C10.0299 17.4306 8.40039 21.3647 8.40039 25.4667H36.4004ZM32.7295 34.3291C30.379 36.6795 27.1911 38 23.8671 38V10C19.765 10 15.831 11.6295 12.9305 14.5301L32.7295 34.3291ZM23.8671 38H31.2004V10H23.8671V38ZM31.2004 38C27.8763 38 24.6884 36.6795 22.338 34.3291L42.137 14.5301C39.2364 11.6295 35.3024 10 31.2004 10V38ZM22.338 34.3291C19.9875 31.9786 18.6671 28.7907 18.6671 25.4667H46.6671C46.6671 21.3646 45.0375 17.4306 42.137 14.5301L22.338 34.3291ZM18.6671 25.4667V32.8H46.6671V25.4667H18.6671ZM18.6671 32.8C18.6671 29.4759 19.9875 26.288 22.338 23.9376L42.137 43.7366C45.0375 40.836 46.6671 36.902 46.6671 32.8H18.6671ZM22.338 23.9376C24.6884 21.5872 27.8763 20.2667 31.2004 20.2667V48.2667C35.3024 48.2667 39.2364 46.6371 42.137 43.7366L22.338 23.9376ZM9.86706 25.4667V32.8H37.8671V25.4667H9.86706ZM23.8671 46.8H31.2004V18.8H23.8671V46.8ZM45.2004 32.8V25.4667H17.2004V32.8H45.2004ZM31.2004 11.4667H23.8671V39.4667H31.2004V11.4667ZM24.5337 29.8667V32.8H52.5337V29.8667H24.5337ZM38.5337 18.8H35.6004V46.8H38.5337V18.8ZM49.6004 32.8V29.8667H21.6004V32.8H49.6004ZM35.6004 43.8667H38.5337V15.8667H35.6004V43.8667ZM38.5337 14.4H35.6004V42.4H38.5337V14.4ZM35.6004 14.4C31.4984 14.4 27.5644 16.0295 24.6638 18.9301L44.4628 38.7291C42.1124 41.0795 38.9245 42.4 35.6004 42.4V14.4ZM24.6638 18.9301C21.7632 21.8306 20.1337 25.7646 20.1337 29.8667H48.1337C48.1337 33.1907 46.8132 36.3786 44.4628 38.7291L24.6638 18.9301ZM20.1337 29.8667V32.8H48.1337V29.8667H20.1337ZM20.1337 32.8C20.1337 36.902 21.7632 40.836 24.6638 43.7366L44.4628 23.9376C46.8132 26.288 48.1337 29.4759 48.1337 32.8H20.1337ZM24.6638 43.7366C27.5644 46.6371 31.4984 48.2667 35.6004 48.2667V20.2667C38.9245 20.2667 42.1124 21.5872 44.4628 23.9376L24.6638 43.7366ZM35.6004 48.2667H38.5337V20.2667H35.6004V48.2667ZM38.5337 48.2667C42.6358 48.2667 46.5698 46.6371 49.4703 43.7366L29.6713 23.9376C32.0218 21.5872 35.2096 20.2667 38.5337 20.2667V48.2667ZM49.4703 43.7366C52.3709 40.836 54.0004 36.902 54.0004 32.8H26.0004C26.0004 29.476 27.3209 26.288 29.6713 23.9376L49.4703 43.7366ZM54.0004 32.8V29.8667H26.0004V32.8H54.0004ZM54.0004 29.8667C54.0004 25.7647 52.3709 21.8306 49.4703 18.9301L29.6713 38.7291C27.3209 36.3786 26.0004 33.1907 26.0004 29.8667H54.0004ZM49.4703 18.9301C46.5698 16.0295 42.6358 14.4 38.5337 14.4V42.4C35.2097 42.4 32.0218 41.0795 29.6713 38.7291L49.4703 18.9301ZM24.5337 37.2V40.1333H52.5337V37.2H24.5337ZM38.5337 26.1333H35.6004V54.1333H38.5337V26.1333ZM49.6004 40.1333V37.2H21.6004V40.1333H49.6004ZM35.6004 51.2H38.5337V23.2H35.6004V51.2ZM38.5337 21.7333H35.6004V49.7333H38.5337V21.7333ZM35.6004 21.7333C31.4984 21.7333 27.5644 23.3629 24.6638 26.2634L44.4628 46.0624C42.1123 48.4129 38.9244 49.7333 35.6004 49.7333V21.7333ZM24.6638 26.2634C21.7632 29.164 20.1337 33.098 20.1337 37.2H48.1337C48.1337 40.524 46.8132 43.712 44.4628 46.0624L24.6638 26.2634ZM20.1337 37.2V40.1333H48.1337V37.2H20.1337ZM20.1337 40.1333C20.1337 44.2354 21.7633 48.1694 24.6638 51.0699L44.4628 31.2709C46.8132 33.6214 48.1337 36.8093 48.1337 40.1333H20.1337ZM24.6638 51.0699C27.5644 53.9705 31.4984 55.6 35.6004 55.6V27.6C38.9244 27.6 42.1123 28.9205 44.4628 31.2709L24.6638 51.0699ZM35.6004 55.6H38.5337V27.6H35.6004V55.6ZM38.5337 55.6C42.6358 55.6 46.5698 53.9705 49.4703 51.0699L29.6713 31.2709C32.0218 28.9205 35.2097 27.6 38.5337 27.6V55.6ZM49.4703 51.0699C52.3709 48.1694 54.0004 44.2354 54.0004 40.1333H26.0004C26.0004 36.8093 27.3209 33.6214 29.6713 31.2709L49.4703 51.0699ZM54.0004 40.1333V37.2H26.0004V40.1333H54.0004ZM54.0004 37.2C54.0004 33.098 52.3709 29.164 49.4703 26.2634L29.6713 46.0624C27.3209 43.712 26.0004 40.524 26.0004 37.2H54.0004ZM49.4703 26.2634C46.5698 23.3629 42.6358 21.7333 38.5337 21.7333V49.7333C35.2097 49.7333 32.0218 48.4129 29.6713 46.0624L49.4703 26.2634ZM17.2004 37.2V40.1333H45.2004V37.2H17.2004ZM31.2004 26.1333H28.2671V54.1333H31.2004V26.1333ZM42.2671 40.1333V37.2H14.2671V40.1333H42.2671ZM28.2671 51.2H31.2004V23.2H28.2671V51.2ZM31.2004 21.7333H28.2671V49.7333H31.2004V21.7333ZM28.2671 21.7333C24.165 21.7333 20.231 23.3629 17.3305 26.2634L37.1295 46.0624C34.779 48.4129 31.5911 49.7333 28.2671 49.7333V21.7333ZM17.3305 26.2634C14.4299 29.164 12.8004 33.098 12.8004 37.2H40.8004C40.8004 40.5241 39.4799 43.712 37.1295 46.0624L17.3305 26.2634ZM12.8004 37.2V40.1333H40.8004V37.2H12.8004ZM12.8004 40.1333C12.8004 44.2354 14.4299 48.1694 17.3305 51.0699L37.1295 31.2709C39.4799 33.6214 40.8004 36.8093 40.8004 40.1333H12.8004ZM17.3305 51.0699C20.231 53.9705 24.165 55.6 28.2671 55.6V27.6C31.5911 27.6 34.779 28.9205 37.1295 31.2709L17.3305 51.0699ZM28.2671 55.6H31.2004V27.6H28.2671V55.6ZM31.2004 55.6C35.3024 55.6 39.2364 53.9705 42.137 51.0699L22.338 31.2709C24.6884 28.9205 27.8763 27.6 31.2004 27.6V55.6ZM42.137 51.0699C45.0375 48.1694 46.6671 44.2354 46.6671 40.1333H18.6671C18.6671 36.8093 19.9876 33.6214 22.338 31.2709L42.137 51.0699ZM46.6671 40.1333V37.2H18.6671V40.1333H46.6671ZM46.6671 37.2C46.6671 33.098 45.0375 29.164 42.137 26.2634L22.338 46.0624C19.9875 43.712 18.6671 40.5241 18.6671 37.2H46.6671ZM42.137 26.2634C39.2364 23.3629 35.3024 21.7333 31.2004 21.7333V49.7333C27.8763 49.7333 24.6884 48.4129 22.338 46.0624L42.137 26.2634Z"
    fill="#0A1214" mask="url(#path-4-inside-1_1077_1102)" />
  <defs>
    <linearGradient id="paint0_linear_1077_1102" x1="32.3323" y1="6.39844" x2="56.9001" y2="42.4619"
      gradientUnits="userSpaceOnUse">
      <stop offset="0.467477" stop-color="#34DBFF" />
      <stop offset="1" stop-color="#C6FFE5" />
    </linearGradient>
  </defs>
</svg>