<svg width="64" height="64" viewBox="0 0 64 64" fill="none" xmlns="http://www.w3.org/2000/svg">
  <path
    d="M50.5518 7.96503H15.4937C14.481 7.96503 13.66 8.78598 13.66 9.79867V57.0452C13.66 58.0579 14.481 58.8788 15.4937 58.8788H50.5518C51.5645 58.8788 52.3855 58.0579 52.3855 57.0452V9.79868C52.3855 8.78598 51.5645 7.96503 50.5518 7.96503Z"
    stroke="#6A7C89" stroke-width="0.916824" stroke-miterlimit="10" />
  <path
    d="M56.6041 16.4531H8.23404C7.22134 16.4531 6.40039 17.2741 6.40039 18.2868V48.562C6.40039 49.5747 7.22134 50.3957 8.23404 50.3957H56.6041C57.6168 50.3957 58.4377 49.5747 58.4377 48.562V18.2868C58.4377 17.2741 57.6168 16.4531 56.6041 16.4531Z"
    fill="url(#paint0_linear_1077_1121)" stroke="#6A7C89" stroke-width="0.916824" stroke-miterlimit="10" />
  <path
    d="M37.7342 33.0272V34.3152C39.6839 34.3152 41.2702 35.9041 41.2702 37.8572C41.2702 39.8102 39.6839 41.3992 37.7342 41.3992C35.7845 41.3992 34.1982 39.8102 34.1982 37.8572H32.9124C32.9124 40.5247 35.0712 42.6872 37.7342 42.6872C40.3972 42.6872 42.556 40.5247 42.556 37.8572C42.556 35.1896 40.3972 33.0272 37.7342 33.0272Z"
    fill="#0A1214" />
  <path
    d="M37.7342 39.4672C38.6219 39.4672 39.3415 38.7463 39.3415 37.8572C39.3415 36.968 38.6219 36.2472 37.7342 36.2472C37.5274 36.2472 37.3312 36.2897 37.1496 36.3609L34.0099 33.2158L33.1007 34.1265L36.2405 37.2716C36.1693 37.4535 36.1269 37.65 36.1269 37.8572C36.1269 38.7463 36.8465 39.4672 37.7342 39.4672Z"
    fill="#0A1214" />
  <path
    d="M41.2702 31.0952H39.9844V28.889L32.9124 24.7567L30.9837 25.8837V31.0952H29.6979V25.5138C29.6979 25.2848 29.8194 25.0729 30.0169 24.9575L32.5885 23.4549C32.6886 23.3964 32.8005 23.3672 32.9124 23.3672C33.0244 23.3672 33.1362 23.3964 33.2364 23.4549L40.9512 27.9629C41.1487 28.0783 41.2702 28.2901 41.2702 28.5192V31.0952Z"
    fill="#0A1214" />
  <path d="M28.4121 26.5872H27.1263V33.0272H28.4121V26.5872Z" fill="#0A1214" />
  <path
    d="M31.6265 42.0374L24.8736 38.0915C24.6762 37.976 24.5547 37.7642 24.5547 37.5352V28.5192H25.8405V37.1653L32.2744 40.9249L31.6265 42.0374Z"
    fill="#0A1214" />
  <defs>
    <linearGradient id="paint0_linear_1077_1121" x1="35.8855" y1="16.3926" x2="34.4815" y2="50.338"
      gradientUnits="userSpaceOnUse">
      <stop offset="0.467477" stop-color="#34DBFF" />
      <stop offset="1" stop-color="#C6FFE5" />
    </linearGradient>
  </defs>
</svg>