<svg width="80" height="80" viewBox="0 0 80 80" fill="none" xmlns="http://www.w3.org/2000/svg">
  <rect y="0.000366211" width="80" height="80" rx="8" fill="#F0B90B" />
  <path
    d="M24.4883 40.9478L24.513 50.0178L32.2197 54.5528V59.8628L20.0027 52.6975V38.2955L24.4883 40.9478ZM24.4883 31.8778V37.1631L20 34.5081V29.2228L24.4883 26.5677L28.9985 29.2228L24.4883 31.8778ZM35.4382 29.2228L39.9265 26.5677L44.4367 29.2228L39.9265 31.8778L35.4382 29.2228Z"
    fill="white" />
  <path
    d="M27.7295 48.1378V42.8277L32.2178 45.4828V50.7681L27.7295 48.1378ZM35.4362 56.4547L39.9245 59.1097L44.4347 56.4547V61.74L39.9245 64.3951L35.4362 61.74V56.4547ZM50.8717 29.2228L55.3599 26.5677L59.8702 29.2228V34.5081L55.3599 37.1631V31.8778L50.8717 29.2228ZM55.3599 50.0178L55.3847 40.9478L59.8729 38.2928V52.6948L47.656 59.8601V54.55L55.3599 50.0178Z"
    fill="white" />
  <path d="M52.1421 48.1327L47.6538 50.763V45.4777L52.1421 42.8226V48.1327Z" fill="white" />
  <path
    d="M52.1415 33.7576L52.1662 39.0677L44.4375 43.6027V52.6946L39.9492 55.3249L35.461 52.6946V43.6027L27.7322 39.0677V33.7576L32.2397 31.1026L39.9217 35.6596L47.6505 31.1026L52.1607 33.7576H52.1415ZM27.7295 24.6904L39.9245 17.5004L52.1415 24.6904L47.6532 27.3454L39.9245 22.7884L32.2178 27.3454L27.7295 24.6904Z"
    fill="white" />
</svg>