<svg width="230" height="230" viewBox="0 0 230 230" fill="none" xmlns="http://www.w3.org/2000/svg">
  <path
    d="M41.5108 136.119C42.693 135.84 43.7626 135.7 44.7197 135.7H53.5438L101.2 185.533V194.263C101.2 198.129 98.066 201.263 94.2 201.263H44.7197C43.7063 201.263 42.6367 201.123 41.5108 200.844C40.3849 200.564 39.3998 200.033 38.5553 199.251C37.7672 198.524 37.345 197.462 37.2887 196.065L36.5287 177.788C36.4724 175.943 36.1628 174.378 35.5998 173.093C35.0932 171.751 34.2206 170.717 32.9821 169.991C31.7999 169.264 30.1392 168.901 28 168.901V168.146C31.2088 168.146 33.4043 167.364 34.5865 165.799C35.7687 164.234 36.4161 162.054 36.5287 159.259L37.2887 140.898C37.345 139.445 37.7672 138.355 38.5553 137.628C39.3998 136.902 40.3849 136.399 41.5108 136.119Z"
    fill="white" stroke="#0A1214" />
  <path
    d="M51.4687 185.495H181.638V44.5869C181.638 33.6995 176.56 29.9267 171.441 29.9267H43.5967C45.3961 29.7835 47.1936 30.2266 48.7231 31.1904C50.2527 32.1542 51.433 33.5874 52.0894 35.2781C52.5248 36.3997 52.7162 37.6026 52.6514 38.8047V96.074"
    fill="white" />
  <path
    d="M51.4687 185.495H181.638V44.5869C181.638 33.6995 176.56 29.9267 171.441 29.9267H43.5967C45.3961 29.7835 47.1936 30.2266 48.7231 31.1904C50.2527 32.1542 51.433 33.5874 52.0894 35.2781C52.5248 36.3997 52.7162 37.6026 52.6514 38.8047V96.074L51.4687 185.495Z"
    stroke="#0A1214" />
  <line x1="68.4126" y1="78.4668" x2="156.863" y2="78.4668" stroke="black" />
  <line x1="68.4126" y1="98.3999" x2="156.863" y2="98.3999" stroke="black" />
  <line x1="68.4126" y1="118.333" x2="156.863" y2="118.333" stroke="black" />
  <line x1="68.4126" y1="158.2" x2="156.863" y2="158.2" stroke="black" />
  <line x1="68.4126" y1="138.267" x2="112.638" y2="138.267" stroke="black" />
  <path d="M205.663 92.7666H125.6V146.433H205.663V92.7666Z" fill="#43FFA8" />
  <path d="M125.026 92.8341V147.09H205.62V92.4861L164.63 120.126L125.026 92.8341Z" fill="#34DBFF" />
  <path
    d="M125.026 92.8348L163.372 65.193C164.778 64.179 166.678 64.1868 168.076 65.2124L205.681 92.7934L125.026 92.8348ZM133.57 140.857L165.527 108.93L200.358 141.471L133.57 140.857Z"
    fill="#34DBFF" />
  <path d="M171.947 114.892L158.912 115.641L126.445 93.2666H204.027L171.947 114.892Z" stroke="black" />
  <path d="M140.088 135.544L165.111 109.606C165.502 109.201 166.15 109.198 166.544 109.6L192.254 135.79"
    fill="#34DBFF" />
  <path d="M140.088 135.544L165.111 109.606C165.502 109.201 166.15 109.198 166.544 109.6L192.254 135.79"
    stroke="#0A1214" stroke-miterlimit="10" />
  <path
    d="M83.9252 56.7332C83.9252 60.2703 81.0736 63.1335 77.5624 63.1335C74.0512 63.1335 71.2002 60.2703 71.2002 56.7332C71.2002 53.1961 74.0512 50.3335 77.5624 50.3335C81.0737 50.3335 83.9252 53.1962 83.9252 56.7332Z"
    fill="#34DBFF" stroke="#0A1214" />
  <path
    d="M124.838 93.15L164.448 64.4897C165.153 63.9795 166.107 63.9838 166.807 64.5003L205.663 93.15V147.2H124.838V93.15Z"
    stroke="black" />
</svg>