<svg width="64" height="64" viewBox="0 0 64 64" fill="none" xmlns="http://www.w3.org/2000/svg">
  <path
    d="M7.45084 7.20451H42.6165C43.376 7.20451 43.9918 7.82022 43.9918 8.57974V42.9306C43.9918 43.6901 43.376 44.3059 42.6165 44.3059H7.45083C6.69131 44.3059 6.0756 43.6901 6.0756 42.9306V8.57974C6.0756 7.82022 6.69131 7.20451 7.45084 7.20451Z"
    stroke="#6A7C89" stroke-width="0.916824" stroke-miterlimit="10" />
  <path
    d="M20.7633 18.3881H57.238C57.9975 18.3881 58.6132 19.0038 58.6132 19.7633V53.816C58.6132 54.5756 57.9975 55.1913 57.238 55.1913H20.7633C20.0038 55.1913 19.3881 54.5756 19.3881 53.816V19.7633C19.3881 19.0038 20.0038 18.3881 20.7633 18.3881Z"
    fill="url(#paint0_linear_1077_1112)" stroke="#6A7C89" stroke-width="0.916824" stroke-miterlimit="10" />
  <path
    d="M46.8643 36.7031C46.3121 36.7059 45.7709 36.8582 45.2976 37.1439L43.0805 34.9163L44.8589 33.1294C45.1498 32.8371 45.3132 32.4407 45.3132 32.0273C45.3132 31.6139 45.1498 31.2175 44.8589 30.9252L40.2054 26.2495C39.9145 25.9572 39.5199 25.793 39.1085 25.793C38.6972 25.793 38.3026 25.9572 38.0117 26.2495L33.3582 30.9252C33.0673 31.2175 32.9039 31.6139 32.9039 32.0273C32.9039 32.4407 33.0673 32.8371 33.3582 33.1294L35.1366 34.9163L32.9192 37.1439C32.2622 36.7523 31.4855 36.6151 30.7349 36.7581C29.9843 36.9012 29.3116 37.3146 28.8429 37.9208C28.3743 38.527 28.142 39.2843 28.1897 40.0504C28.2374 40.8165 28.5618 41.5387 29.102 42.0815C29.6422 42.6243 30.361 42.9502 31.1235 42.9982C31.8859 43.0461 32.6396 42.8127 33.2429 42.3418C33.8462 41.8709 34.2577 41.195 34.4001 40.4408C34.5424 39.6867 34.4059 38.9062 34.0161 38.2461L36.2331 36.0184L38.0116 37.8053C38.1077 37.8993 38.2157 37.9802 38.3328 38.046V41.3788H36.006V47.6132H42.2107V41.3788H39.884V38.046C40.0011 37.9802 40.1091 37.8992 40.2052 37.8051L41.9836 36.0182L44.2007 38.2461C43.8573 38.838 43.7182 39.5274 43.805 40.207C43.8918 40.8865 44.1996 41.5183 44.6807 42.0039C45.1617 42.4895 45.789 42.8018 46.4649 42.8923C47.1408 42.9827 47.8276 42.8462 48.4183 42.504C49.0091 42.1618 49.4707 41.633 49.7315 40.9999C49.9923 40.3669 50.0376 39.665 49.8603 39.0034C49.6831 38.3417 49.2932 37.7575 48.7514 37.3415C48.2096 36.9255 47.5462 36.7011 46.8643 36.7031ZM32.9037 39.8202C32.9037 40.1285 32.8127 40.4298 32.6423 40.6861C32.4718 40.9424 32.2296 41.1422 31.9461 41.2602C31.6627 41.3781 31.3508 41.409 31.0499 41.3489C30.749 41.2887 30.4726 41.1403 30.2557 40.9223C30.0387 40.7043 29.891 40.4266 29.8312 40.1243C29.7713 39.822 29.802 39.5086 29.9194 39.2238C30.0368 38.939 30.2356 38.6956 30.4907 38.5243C30.7458 38.3531 31.0457 38.2616 31.3525 38.2616C31.7638 38.2621 32.158 38.4265 32.4488 38.7187C32.7396 39.0109 32.9032 39.407 32.9037 39.8202ZM40.6596 42.9374V46.0546H37.5572V42.9374H40.6596ZM39.1084 36.7031L34.4549 32.0273L39.1084 27.3515L43.7619 32.0273L39.1084 36.7031ZM46.8643 41.3788C46.5575 41.3788 46.2576 41.2874 46.0025 41.1162C45.7474 40.9449 45.5486 40.7015 45.4312 40.4167C45.3138 40.1319 45.283 39.8185 45.3429 39.5162C45.4027 39.2138 45.5505 38.9361 45.7674 38.7181C45.9843 38.5002 46.2607 38.3517 46.5616 38.2916C46.8625 38.2315 47.1744 38.2623 47.4579 38.3803C47.7413 38.4983 47.9836 38.698 48.154 38.9543C48.3245 39.2106 48.4154 39.512 48.4154 39.8202C48.415 40.2335 48.2514 40.6296 47.9606 40.9218C47.6698 41.214 47.2755 41.3783 46.8643 41.3788Z"
    fill="#0A1214" />
  <defs>
    <linearGradient id="paint0_linear_1077_1112" x1="41.6747" y1="17.8624" x2="39.4311" y2="55.5165"
      gradientUnits="userSpaceOnUse">
      <stop offset="0.467477" stop-color="#34DBFF" />
      <stop offset="1" stop-color="#C6FFE5" />
    </linearGradient>
  </defs>
</svg>