<svg width="20" height="20" viewBox="0 0 20 20" fill="none" xmlns="http://www.w3.org/2000/svg">
<g clip-path="url(#clip0_386_832)">
<path d="M20.2667 3.8938C19.5079 4.22106 18.7028 4.43554 17.8783 4.53004C18.744 4.02329 19.3927 3.23038 19.7056 2.29662C18.889 2.76626 17.9961 3.09725 17.0651 3.27538C16.4385 2.62696 15.6093 2.19744 14.706 2.05338C13.8027 1.90932 12.8757 2.05876 12.0686 2.47854C11.2616 2.89832 10.6195 3.56501 10.242 4.3753C9.86441 5.1856 9.77242 6.09427 9.98026 6.96052C8.32691 6.87968 6.70954 6.46196 5.23309 5.73446C3.75663 5.00696 2.4541 3.98595 1.41002 2.73767C1.04031 3.35442 0.845992 4.05559 0.846979 4.76933C0.846177 5.43447 1.0146 6.0895 1.33727 6.67611C1.65994 7.26272 2.12684 7.76274 2.69643 8.13166C2.03621 8.11179 1.39048 7.93868 0.813178 7.62679V7.67653C0.812743 8.60966 1.14476 9.51416 1.75284 10.2364C2.36092 10.9586 3.20756 11.454 4.14894 11.6385C3.80127 11.7323 3.43427 11.7764 3.05376 11.7764C2.78528 11.7764 2.52549 11.7549 2.27149 11.7051C2.53725 12.5078 3.0545 13.2098 3.75093 13.7128C4.44737 14.2159 5.28817 14.495 6.15581 14.511C4.41083 15.8347 2.19834 16.4351 0 16.1813C1.90023 17.3711 4.11351 18.0026 6.37408 18C14.023 18 18.2028 11.8421 18.2028 6.50445C18.2028 6.32897 18.2009 6.15537 18.1932 5.98176C19.0076 5.41293 19.7097 4.70592 20.2657 3.89473" fill="#BCBFC2"/>
</g>
<defs>
<clipPath id="clip0_386_832">
<rect width="20" height="20" fill="white"/>
</clipPath>
</defs>
</svg>
