<svg width="62" height="16" viewBox="0 0 62 16" fill="none" xmlns="http://www.w3.org/2000/svg">
<path fill-rule="evenodd" clip-rule="evenodd" d="M0.888483 12.5768H2.98841V11.0891H1.6399V1.50283H9.49059C11.6158 1.50283 13.1009 2.68942 13.9384 4.339C14.4037 5.28072 14.6805 6.30435 14.753 7.35227C14.8388 8.42155 14.729 9.4975 14.4292 10.5275C13.8473 12.4705 12.5292 14.0619 10.5051 14.4161C9.72302 14.5121 8.93407 14.54 8.14714 14.4996C7.72465 14.4844 7.28698 14.4844 7.07697 14.4844H7.07693V15.9797H8.12437C9.00354 16.0264 9.88514 15.9925 10.7581 15.8785C13.4273 15.4155 15.125 13.399 15.8587 10.9474C16.2175 9.74418 16.353 8.4854 16.2584 7.23336C16.17 5.98827 15.8401 4.77231 15.2869 3.65336C14.2066 1.51802 12.2888 0 9.50577 0H0.144653V12.5768H0.888483ZM9.11867 3.44337H3.8056L3.79801 4.94873H3.8056V11.0815H3.79801V12.5717L3.8056 12.5717V14.4971L0.22561 14.4768L0.23067 15.967L4.55449 15.9822L5.30085 15.9746V12.576C6.90077 12.5791 8.42087 12.5764 8.7594 12.5591H8.8353L8.84122 12.5588C9.87603 12.5105 12.7518 12.3763 12.7518 8.08344C12.7417 3.69637 9.13132 3.44337 9.11867 3.44337ZM5.30085 11.0815H8.6835H8.76193C9.41974 11.0512 11.2641 10.9651 11.2591 8.09609C11.2591 5.29535 9.2983 4.9791 9.03518 4.94873H5.30085V11.0815Z" fill="url(#paint0_linear_4580_6180)"/>
<path fill-rule="evenodd" clip-rule="evenodd" d="M61.8546 10.2213V7.2612C61.8628 6.9518 61.805 6.64419 61.6851 6.35888C61.5651 6.07357 61.3857 5.8171 61.1589 5.60656C60.932 5.38976 60.6646 5.21984 60.372 5.10653C60.0794 4.99322 59.7673 4.93874 59.4536 4.94622H55.6586C55.0251 4.93168 54.4118 5.16918 53.9533 5.60656C53.7265 5.8171 53.5471 6.07357 53.4271 6.35888C53.3071 6.64419 53.2493 6.9518 53.2576 7.2612V10.2213C53.2492 10.5308 53.3069 10.8384 53.4269 11.1237C53.5469 11.4091 53.7263 11.6655 53.9533 11.876C54.4118 12.3133 55.0251 12.5509 55.6586 12.5363H59.4536C59.7673 12.5438 60.0794 12.4893 60.372 12.376C60.6646 12.2627 60.932 12.0928 61.1589 11.876C61.3858 11.6655 61.5653 11.4091 61.6853 11.1237C61.8053 10.8384 61.863 10.5308 61.8546 10.2213ZM60.4429 10.2213C60.4429 10.8361 60.0431 11.1271 59.4536 11.1271H55.6586C55.0691 11.1271 54.6693 10.8361 54.6693 10.2213V7.26373C54.6693 6.64893 55.0691 6.35798 55.6586 6.35798H59.4536C60.0431 6.35798 60.4429 6.64893 60.4429 7.26373V10.2213Z" fill="#01020C"/>
<path fill-rule="evenodd" clip-rule="evenodd" d="M43.0236 4.9361V6.34785H48.7997C49.3866 6.34785 49.7585 6.65146 49.7585 7.25361V10.2087C49.7585 10.8108 49.3866 11.1144 48.7997 11.1144H44.448V7.92659H43.0363V12.5262H48.7997C49.1119 12.534 49.4225 12.4796 49.7135 12.3663C50.0046 12.2529 50.2701 12.0828 50.4948 11.8658C50.7201 11.6545 50.898 11.3977 51.0167 11.1125C51.1353 10.8272 51.192 10.52 51.1829 10.2112V7.25107C51.192 6.94226 51.1353 6.63506 51.0167 6.34981C50.898 6.06455 50.7201 5.80776 50.4948 5.59643C50.2701 5.37948 50.0046 5.20938 49.7135 5.09601C49.4225 4.98265 49.1119 4.92829 48.7997 4.9361H43.0236Z" fill="#01020C"/>
<path fill-rule="evenodd" clip-rule="evenodd" d="M40.9363 12.5262V7.18782C40.9488 6.60177 40.7432 6.03196 40.3595 5.58885C40.1783 5.3758 39.9512 5.20644 39.6954 5.09341C39.4396 4.98038 39.1615 4.92661 38.8819 4.9361H34.4873C34.2105 4.92763 33.9353 4.98196 33.6825 5.09501C33.4297 5.20806 33.2057 5.3769 33.0274 5.58885C32.6419 6.03109 32.4353 6.60128 32.4481 7.18782V12.5262H33.8624V7.21313C33.8624 6.80073 34.004 6.3681 34.4873 6.3681H38.8819C39.3702 6.3681 39.5246 6.79061 39.5246 7.21313V8.57934H35.5069V9.9911H39.5246V12.5262H40.9363Z" fill="#01020C"/>
<path fill-rule="evenodd" clip-rule="evenodd" d="M21.6777 4.9361V6.34027C24.2078 6.34027 25.789 6.34027 28.314 6.34027C28.8757 6.34027 28.9566 6.99554 28.9566 7.42312C28.9566 7.85069 28.8706 8.48826 28.314 8.48826H21.6777V12.5262H23.0895V9.91773H28.3064C28.6039 9.92702 28.8989 9.8612 29.1643 9.72632C29.4296 9.59145 29.6566 9.39189 29.8244 9.14607C30.1955 8.65648 30.3883 8.05489 30.3709 7.44083C30.3859 6.81969 30.1927 6.21139 29.8219 5.71282C29.6538 5.47117 29.4282 5.27522 29.1653 5.1427C28.9025 5.01017 28.6108 4.94526 28.3165 4.95381L21.6777 4.9361Z" fill="#01020C"/>
<defs>
<linearGradient id="paint0_linear_4580_6180" x1="8.21613" y1="0" x2="8.21613" y2="16" gradientUnits="userSpaceOnUse">
<stop stop-color="#78E1FB"/>
<stop offset="1" stop-color="#70FFBD"/>
</linearGradient>
</defs>
</svg>
