<svg width="16" height="16" viewBox="0 0 16 16" fill="none" xmlns="http://www.w3.org/2000/svg">
<path fill-rule="evenodd" clip-rule="evenodd" d="M12.6673 2.66732H3.33398C2.96579 2.66732 2.66732 2.96579 2.66732 3.33398V12.6673C2.66732 13.0355 2.96579 13.334 3.33398 13.334H12.6673C13.0355 13.334 13.334 13.0355 13.334 12.6673V3.33398C13.334 2.96579 13.0355 2.66732 12.6673 2.66732ZM3.33398 1.33398C2.22941 1.33398 1.33398 2.22941 1.33398 3.33398V12.6673C1.33398 13.7719 2.22941 14.6673 3.33398 14.6673H12.6673C13.7719 14.6673 14.6673 13.7719 14.6673 12.6673V3.33398C14.6673 2.22941 13.7719 1.33398 12.6673 1.33398H3.33398Z" fill="#FF4D4F"/>
</svg>
