<svg width="16" height="16" viewBox="0 0 16 16" fill="none" xmlns="http://www.w3.org/2000/svg">
  <path fill-rule="evenodd" clip-rule="evenodd"
    d="M3.33301 1.33337C2.22844 1.33337 1.33301 2.2288 1.33301 3.33337V12.6667C1.33301 13.7713 2.22844 14.6667 3.33301 14.6667H12.6663C13.7709 14.6667 14.6663 13.7713 14.6663 12.6667V3.33337C14.6663 2.2288 13.7709 1.33337 12.6663 1.33337H3.33301ZM11.7761 6.33983C12.0374 6.08041 12.0389 5.6583 11.7795 5.39702C11.52 5.13574 11.0979 5.13424 10.8367 5.39365L7.02223 9.18091L5.17562 7.24343C4.92159 6.97691 4.49961 6.96678 4.23308 7.2208C3.96656 7.47482 3.95643 7.89681 4.21045 8.16334L6.52651 10.5934C6.65013 10.7231 6.82075 10.7975 6.9999 10.8C7.17906 10.8025 7.35167 10.7327 7.47881 10.6065L11.7761 6.33983Z"
    fill="#0A1214" />
</svg>