<svg width="20" height="20" viewBox="0 0 20 20" fill="none" xmlns="http://www.w3.org/2000/svg">
<path d="M18.4036 3.8802L20 2.33781V2H14.4714L10.5312 11.909L6.04948 2H0.252604V2.33781L2.11719 4.60556C2.29948 4.77316 2.39323 5.01931 2.36979 5.26547V14.1768C2.42708 14.4989 2.32552 14.8262 2.10156 15.0592L0 17.6334V17.966H5.95312V17.6282L3.85417 15.0619C3.74171 14.9471 3.65711 14.8077 3.60698 14.6546C3.55684 14.5016 3.54251 14.3389 3.5651 14.1794V6.47005L8.79167 17.9712H9.39844L13.8932 6.47005V15.6327C13.8932 15.8736 13.8932 15.9234 13.737 16.0831L12.1198 17.6622V18H19.9635V17.6622L18.4036 16.1198C18.2682 16.0151 18.1979 15.8396 18.2266 15.6694V4.33061C18.2131 4.24646 18.2224 4.16021 18.2536 4.08094C18.2847 4.00167 18.3366 3.93232 18.4036 3.8802Z" fill="#BCBFC2"/>
</svg>
