<svg width="20" height="20" viewBox="0 0 20 20" fill="none" xmlns="http://www.w3.org/2000/svg">
  <path
    d="M16.2617 3.35131C16.2563 3.34 16.2475 3.33114 16.2367 3.32631C14.9932 2.70162 13.6809 2.25616 12.3327 2.00109C12.3204 1.9986 12.3078 2.0004 12.2965 2.00623C12.2853 2.01207 12.276 2.02164 12.27 2.03359C12.0913 2.3887 11.929 2.75345 11.7839 3.12645C10.3306 2.88491 8.85236 2.88491 7.39906 3.12645C7.25299 2.7525 7.08817 2.38766 6.90537 2.03359C6.8991 2.0219 6.88976 2.01255 6.87857 2.00675C6.86738 2.00095 6.85485 1.99898 6.84261 2.00109C5.49426 2.25563 4.18188 2.70112 2.93849 3.32635C2.92785 3.33129 2.91887 3.33972 2.91279 3.35049C0.426263 7.41614 -0.254891 11.3818 0.07926 15.2984C0.0802001 15.308 0.0828936 15.3173 0.0871804 15.3257C0.0914672 15.3342 0.0972598 15.3416 0.104214 15.3475C1.55209 16.5213 3.17157 17.4172 4.89352 17.9971C4.90565 18.0011 4.9186 18.0009 4.93063 17.9966C4.94266 17.9923 4.95319 17.9841 4.96081 17.973C5.33065 17.422 5.65836 16.8386 5.9406 16.2286C5.94447 16.2203 5.94669 16.2111 5.94709 16.2017C5.9475 16.1923 5.94608 16.183 5.94294 16.1742C5.9398 16.1655 5.93501 16.1576 5.92887 16.151C5.92274 16.1445 5.91541 16.1394 5.90736 16.1362C5.39059 15.9197 4.8903 15.6587 4.41118 15.3557C4.40248 15.3501 4.39517 15.3423 4.3899 15.3328C4.38463 15.3234 4.38156 15.3127 4.38096 15.3017C4.38037 15.2906 4.38226 15.2796 4.38648 15.2696C4.3907 15.2595 4.39711 15.2508 4.40515 15.2441C4.50597 15.1616 4.60503 15.0767 4.70228 14.9892C4.7108 14.9815 4.72112 14.9766 4.73207 14.975C4.74302 14.9733 4.75417 14.9751 4.76425 14.9801C7.90316 16.5485 11.3015 16.5485 14.4032 14.9801C14.4133 14.9748 14.4246 14.9728 14.4357 14.9743C14.4468 14.9757 14.4573 14.9806 14.466 14.9884C14.5633 15.0763 14.6626 15.1616 14.7639 15.2441C14.7719 15.2507 14.7784 15.2594 14.7827 15.2694C14.787 15.2794 14.7889 15.2904 14.7884 15.3015C14.7879 15.3125 14.7849 15.3232 14.7797 15.3327C14.7745 15.3422 14.7672 15.3501 14.7586 15.3557C14.2805 15.6613 13.7798 15.9221 13.2617 16.1354C13.2536 16.1387 13.2463 16.1439 13.2402 16.1506C13.2341 16.1572 13.2294 16.1652 13.2263 16.174C13.2232 16.1828 13.2219 16.1922 13.2224 16.2016C13.2228 16.2111 13.2251 16.2203 13.2291 16.2286C13.516 16.8352 13.8432 17.4179 14.2081 17.972C14.2155 17.9834 14.226 17.9919 14.238 17.9964C14.2501 18.0009 14.2632 18.0011 14.2754 17.997C16.0004 17.4191 17.6227 16.5231 19.0724 15.3475C19.0795 15.3419 19.0854 15.3347 19.0897 15.3263C19.094 15.318 19.0966 15.3088 19.0974 15.2992C19.4974 10.7713 18.4276 6.83807 16.2617 3.35131ZM6.40937 12.9136C5.46432 12.9136 4.68564 11.9641 4.68564 10.7979C4.68564 9.63179 5.44922 8.68218 6.40937 8.68218C7.37701 8.68218 8.14816 9.64004 8.13306 10.7979C8.13306 11.9641 7.36945 12.9136 6.40937 12.9136ZM12.7825 12.9136C11.8375 12.9136 11.0588 11.9641 11.0588 10.7979C11.0588 9.63179 11.8224 8.68218 12.7825 8.68218C13.7502 8.68218 14.5213 9.64004 14.5062 10.7979C14.5062 11.9641 13.7502 12.9136 12.7825 12.9136Z"
    fill="#BCBFC2" />
</svg>