<svg width="20" height="20" viewBox="0 0 20 20" fill="none" xmlns="http://www.w3.org/2000/svg">
<path d="M6.23088 2.26361C6.86326 2.46692 7.46486 2.74797 8.02033 3.09958C8.80481 2.9093 9.61145 2.8137 10.4211 2.81506C11.2573 2.81506 12.0641 2.91416 12.8203 3.09878C13.3755 2.74751 13.9768 2.46673 14.6089 2.26361C15.1958 2.0742 16.032 1.7673 16.5289 2.28918C16.8657 2.64403 16.9499 3.23864 17.0097 3.69259C17.0771 4.19929 17.0931 4.85943 16.9162 5.51478C17.5924 6.34356 18 7.33218 18 8.40951C18 10.0415 17.0686 11.4585 15.6901 12.4399C15.0267 12.9063 14.2909 13.2719 13.5091 13.5236C13.6893 13.9153 13.7895 14.3484 13.7895 14.8032V17.2008C13.7895 17.4128 13.7008 17.616 13.5429 17.7659C13.385 17.9158 13.1708 18 12.9474 18H7.89486C7.67152 18 7.45733 17.9158 7.29941 17.7659C7.14148 17.616 7.05276 17.4128 7.05276 17.2008V16.4088C6.24856 16.5023 5.57405 16.4192 5.00058 16.1882C4.40101 15.9468 3.98333 15.5728 3.66923 15.2148C3.37112 14.8759 3.04608 14.1119 2.57619 13.9632C2.47124 13.93 2.37421 13.8776 2.29062 13.8088C2.20704 13.7401 2.13854 13.6564 2.08904 13.5625C1.98908 13.3729 1.97257 13.1534 2.04314 12.9522C2.11371 12.7511 2.26559 12.5847 2.46537 12.4899C2.66514 12.395 2.89644 12.3793 3.10839 12.4463C3.66923 12.6237 4.03469 13.0074 4.2848 13.3158C4.689 13.8114 5.01742 14.4587 5.65741 14.7169C5.92099 14.8232 6.30751 14.8927 6.91213 14.8144L7.05276 14.7872C7.05437 14.3523 7.1498 13.9222 7.33318 13.5236C6.55137 13.2719 5.81557 12.9063 5.15216 12.4399C3.77365 11.4585 2.84229 10.0423 2.84229 8.40951C2.84229 7.33378 3.24902 6.34596 3.92354 5.51798C3.7467 4.86263 3.76186 4.20089 3.82922 3.69339L3.83343 3.66302C3.89491 3.19788 3.96649 2.65042 4.31006 2.28918C4.8069 1.7673 5.64394 2.075 6.23004 2.26441L6.23088 2.26361Z" fill="#BCBFC2"/>
</svg>
