<svg width="481" height="481" viewBox="0 0 482 481" fill="none"
  xmlns="http://www.w3.org/2000/svg">
  <circle cx="37.5002" cy="37" r="36.6" stroke="#0A1214" stroke-width="0.8" />
  <circle cx="139.25" cy="37" r="36.6" stroke="#0A1214" stroke-width="0.8" />
  <circle cx="241" cy="37" r="36.6" stroke="#0A1214" stroke-width="0.8" />
  <circle cx="444.5" cy="37" r="36.6" stroke="#0A1214" stroke-width="0.8" />
  <circle cx="342.751" cy="37" r="36.6" stroke="#0A1214" stroke-width="0.8" />
  <circle cx="37.5002" cy="138.75" r="36.6" stroke="#0A1214" stroke-width="0.8" />
  <circle cx="444.5" cy="138.75" r="36.6" stroke="#0A1214" stroke-width="0.8" />
  <circle cx="37.5002" cy="240.5" r="36.6" stroke="#0A1214" stroke-width="0.8" />
  <circle cx="444.5" cy="240.5" r="36.6" stroke="#0A1214" stroke-width="0.8" />
  <circle cx="37.5002" cy="342.25" r="36.6" stroke="#0A1214" stroke-width="0.8" />
  <circle cx="444.5" cy="342.25" r="36.6" stroke="#0A1214" stroke-width="0.8" />
  <circle cx="37.5002" cy="444" r="36.6" stroke="#0A1214" stroke-width="0.8" />
  <circle cx="139.25" cy="444" r="36.6" stroke="#0A1214" stroke-width="0.8" />
  <circle cx="241" cy="444" r="36.6" stroke="#0A1214" stroke-width="0.8" />
  <circle cx="342.751" cy="444" r="36.6" stroke="#0A1214" stroke-width="0.8" />
  <circle cx="444.5" cy="444" r="36.6" stroke="#0A1214" stroke-width="0.8" />
  <circle cx="241" cy="240.5" r="107.3" stroke="#0A1214" stroke-opacity="0.2" stroke-width="0.8" stroke-linecap="round"
    stroke-dasharray="0.1 3" />
  <circle cx="241" cy="138.75" r="36.6"  stroke="#0A1214" stroke-width="0.8" />
  
  <circle cx="241" cy="240.5" r="36.6" fill="" stroke="#0A1214" stroke-width="0.8" />
  
  <circle cx="241" cy="342.25" r="36.6" fill="" stroke="#0A1214" stroke-width="0.8" />
  
  <circle cx="139.25" cy="138.75" r="36.6" stroke="#0A1214" stroke-width="0.8" />
  <circle cx="342.751" cy="138.75" r="36.6" stroke="#0A1214" stroke-width="0.8" />
  <circle cx="139.25" cy="342.25" r="36.6" stroke="#0A1214" stroke-width="0.8" />
  <circle cx="342.751" cy="342.25" r="36.6" stroke="#0A1214" stroke-width="0.8" />
  <circle cx="342.751" cy="240.5" r="36.6" fill="" stroke="#0A1214" stroke-width="0.8" />
  
  <circle cx="139.25" cy="240.5" r="36.6" fill="" stroke="#0A1214" stroke-width="0.8" />
</svg>