<svg width="24" height="25" viewBox="0 0 24 25" fill="none" xmlns="http://www.w3.org/2000/svg">
  <rect width="24" height="24" transform="translate(0 0.499756)" fill="white" style="mix-blend-mode:multiply" />
  <path
    d="M12.9 10.2498C13.2 11.1498 14.025 11.7498 15 11.7498C16.275 11.7498 17.25 10.7748 17.25 9.49976C17.25 8.22476 16.275 7.24976 15 7.24976C14.025 7.24976 13.2 7.84976 12.9 8.74976H3.75C2.925 8.74976 2.25 9.42476 2.25 10.2498V14.7498H0V16.2498H2.25V20.7498C2.25 21.5748 2.925 22.2498 3.75 22.2498H14.25C15.075 22.2498 15.75 21.5748 15.75 20.7498V17.7498H14.25V20.7498H3.75V10.2498H12.9ZM15 8.74976C15.45 8.74976 15.75 9.04976 15.75 9.49976C15.75 9.94976 15.45 10.2498 15 10.2498C14.55 10.2498 14.25 9.94976 14.25 9.49976C14.25 9.04976 14.55 8.74976 15 8.74976Z"
    fill="#3A3B3C" />
  <path
    d="M21.75 8.74976V4.24976C21.75 3.42476 21.075 2.74976 20.25 2.74976H9.75C8.925 2.74976 8.25 3.42476 8.25 4.24976V7.24976H9.75V4.24976H20.25V14.7498H11.1C10.8 13.8498 9.975 13.2498 9 13.2498C7.725 13.2498 6.75 14.2248 6.75 15.4998C6.75 16.7748 7.725 17.7498 9 17.7498C9.975 17.7498 10.8 17.1498 11.1 16.2498H20.25C21.075 16.2498 21.75 15.5748 21.75 14.7498V10.2498H24V8.74976H21.75ZM9 16.2498C8.55 16.2498 8.25 15.9498 8.25 15.4998C8.25 15.0498 8.55 14.7498 9 14.7498C9.45 14.7498 9.75 15.0498 9.75 15.4998C9.75 15.9498 9.45 16.2498 9 16.2498Z"
    fill="#3A3B3C" />
</svg>