<svg width="23" height="23" viewBox="0 0 23 23" fill="none" xmlns="http://www.w3.org/2000/svg">
  <rect width="23" height="23" transform="translate(0 -0.000244141)" fill="white" style="mix-blend-mode:multiply" />
  <path
    d="M14.375 17.9685C13.5448 17.9692 12.7274 17.7642 11.9958 17.3718C11.2641 16.9793 10.6412 16.4118 10.1825 15.7198L11.38 14.9238C11.7078 15.418 12.1529 15.8234 12.6755 16.1038C13.1981 16.3842 13.7819 16.531 14.375 16.531C14.9681 16.531 15.5519 16.3842 16.0745 16.1038C16.5971 15.8234 17.0422 15.418 17.37 14.9238L18.5675 15.7198C18.1088 16.4118 17.4858 16.9793 16.7542 17.3718C16.0226 17.7642 15.2052 17.9692 14.375 17.9685Z"
    fill="#3A3B3C" />
  <path
    d="M17.25 10.0623C16.9657 10.0623 16.6878 10.1466 16.4514 10.3045C16.215 10.4625 16.0307 10.687 15.9219 10.9496C15.8131 11.2123 15.7847 11.5014 15.8401 11.7802C15.8956 12.059 16.0325 12.3152 16.2335 12.5162C16.4346 12.7173 16.6907 12.8542 16.9696 12.9096C17.2484 12.9651 17.5374 12.9366 17.8001 12.8278C18.0628 12.719 18.2873 12.5348 18.4452 12.2984C18.6032 12.062 18.6875 11.7841 18.6875 11.4998C18.6894 11.3105 18.6535 11.1227 18.5819 10.9475C18.5103 10.7722 18.4045 10.613 18.2706 10.4791C18.1368 10.3453 17.9776 10.2395 17.8023 10.1679C17.6271 10.0963 17.4393 10.0604 17.25 10.0623Z"
    fill="#3A3B3C" />
  <path
    d="M11.5 10.0623C11.2157 10.0623 10.9378 10.1466 10.7014 10.3045C10.465 10.4625 10.2807 10.687 10.1719 10.9496C10.0631 11.2123 10.0347 11.5014 10.0901 11.7802C10.1456 12.059 10.2825 12.3152 10.4835 12.5162C10.6846 12.7173 10.9407 12.8542 11.2196 12.9096C11.4984 12.9651 11.7874 12.9366 12.0501 12.8278C12.3128 12.719 12.5373 12.5348 12.6952 12.2984C12.8532 12.062 12.9375 11.7841 12.9375 11.4998C12.9394 11.3105 12.9035 11.1227 12.8319 10.9475C12.7603 10.7722 12.6545 10.613 12.5206 10.4791C12.3868 10.3453 12.2276 10.2395 12.0523 10.1679C11.8771 10.0963 11.6893 10.0604 11.5 10.0623Z"
    fill="#3A3B3C" />
  <path
    d="M20.125 5.74976H15.8125V2.87476C15.8121 2.49364 15.6605 2.12826 15.391 1.85877C15.1215 1.58928 14.7561 1.43769 14.375 1.43726H2.875C2.49389 1.43769 2.12851 1.58928 1.85902 1.85877C1.58953 2.12826 1.43794 2.49364 1.4375 2.87476V10.0623C1.44022 11.8182 2.08502 13.5125 3.25041 14.826C4.41579 16.1395 6.0213 16.9815 7.76444 17.1933C8.41388 18.7171 9.5698 19.9699 11.0366 20.7395C12.5035 21.5092 14.1911 21.7485 15.8141 21.417C17.4371 21.0855 18.8957 20.2035 19.9432 18.9202C20.9907 17.637 21.5627 16.0312 21.5625 14.3748V7.18726C21.5621 6.80614 21.4105 6.44076 21.141 6.17127C20.8715 5.90178 20.5061 5.75019 20.125 5.74976ZM2.875 10.0623V2.87476H14.375V5.74976H8.625C8.24389 5.75019 7.87851 5.90178 7.60902 6.17127C7.33953 6.44076 7.18794 6.80614 7.1875 7.18726V14.3748C7.18933 14.804 7.22974 15.2322 7.30825 15.6541C6.04802 15.3566 4.92492 14.6428 4.12048 13.6281C3.31603 12.6134 2.87724 11.3571 2.875 10.0623ZM20.125 14.3748C20.125 15.8998 19.5192 17.3623 18.4409 18.4406C17.3625 19.519 15.9 20.1248 14.375 20.1248C12.85 20.1248 11.3875 19.519 10.3091 18.4406C9.2308 17.3623 8.625 15.8998 8.625 14.3748V7.18726H20.125V14.3748Z"
    fill="#3A3B3C" />
</svg>