<svg width="23" height="23" viewBox="0 0 23 23" fill="none" xmlns="http://www.w3.org/2000/svg">
  <rect width="23" height="23" transform="translate(0 -0.000244141)" fill="white" style="mix-blend-mode:multiply" />
  <path
    d="M19.4062 20.8435H9.34375C8.55312 20.8435 7.90625 20.1966 7.90625 19.406V16.531H9.34375V19.406H19.4062V9.34351H16.5312V7.90601H19.4062C20.1969 7.90601 20.8438 8.55288 20.8438 9.34351V19.406C20.8438 20.1966 20.1969 20.8435 19.4062 20.8435Z"
    fill="#3A3B3C" />
  <path
    d="M14.375 12.2185C14.0156 12.2185 13.7281 12.2904 13.4406 12.4341L10.5656 9.55913C10.7094 9.27163 10.7812 8.98413 10.7812 8.62476C10.7812 7.40288 9.84688 6.46851 8.625 6.46851C7.40312 6.46851 6.46875 7.40288 6.46875 8.62476C6.46875 9.84663 7.40312 10.781 8.625 10.781C8.98438 10.781 9.27187 10.7091 9.55938 10.5654L12.4344 13.4404C12.2906 13.7279 12.2188 14.0154 12.2188 14.3748C12.2188 15.5966 13.1531 16.531 14.375 16.531C15.5969 16.531 16.5312 15.5966 16.5312 14.3748C16.5312 13.1529 15.5969 12.2185 14.375 12.2185ZM7.90625 8.62476C7.90625 8.19351 8.19375 7.90601 8.625 7.90601C9.05625 7.90601 9.34375 8.19351 9.34375 8.62476C9.34375 9.05601 9.05625 9.34351 8.625 9.34351C8.19375 9.34351 7.90625 9.05601 7.90625 8.62476ZM14.375 15.0935C13.9438 15.0935 13.6562 14.806 13.6562 14.3748C13.6562 13.9435 13.9438 13.656 14.375 13.656C14.8062 13.656 15.0938 13.9435 15.0938 14.3748C15.0938 14.806 14.8062 15.0935 14.375 15.0935Z"
    fill="#3A3B3C" />
  <path
    d="M3.59375 2.15601H13.6562C14.4469 2.15601 15.0938 2.80288 15.0938 3.59351V6.46851H13.6562V3.59351H3.59375V13.656H6.46875V15.0935H3.59375C2.80312 15.0935 2.15625 14.4466 2.15625 13.656V3.59351C2.15625 2.80288 2.80312 2.15601 3.59375 2.15601Z"
    fill="#3A3B3C" />
</svg>