<svg width="630" height="529" viewBox="0 0 630 529" fill="none" xmlns="http://www.w3.org/2000/svg">
<path d="M555.075 264.867H74.9258" stroke="#6A7C89" stroke-linecap="round" stroke-linejoin="round"/>
<path d="M456.121 264.492L314.998 123.998L173.875 264.492L314.998 404.986L456.121 264.492Z" fill="url(#paint0_linear_110_2493)"/>
<path d="M314.98 83.6504L496.659 264.481L314.98 445.349" stroke="#6A7C89" stroke-linecap="round" stroke-linejoin="round"/>
<path d="M314.98 83.6504L133.341 264.481L314.98 445.349" stroke="#6A7C89" stroke-linecap="round" stroke-linejoin="round"/>
<path d="M355.572 83.6504L537.25 264.481L355.572 445.349" stroke="#6A7C89" stroke-linecap="round" stroke-linejoin="round"/>
<path d="M274.39 83.6504L92.75 264.481L274.39 445.349" stroke="#6A7C89" stroke-linecap="round" stroke-linejoin="round"/>
<path d="M274.432 83.6506L456.11 264.481L274.432 445.349" stroke="#6A7C89" stroke-linecap="round" stroke-linejoin="round"/>
<path d="M355.529 445.349L173.889 264.481L355.529 83.6506" stroke="#6A7C89" stroke-linecap="round" stroke-linejoin="round"/>
<path d="M314.98 503.082V470.305" stroke="#6A7C89" stroke-linecap="round" stroke-linejoin="round"/>
<path d="M314.98 367.451V334.674" stroke="#0A1214" stroke-linecap="round" stroke-linejoin="round"/>
<path d="M314.98 25.918V58.6951" stroke="#6A7C89" stroke-linecap="round" stroke-linejoin="round"/>
<path d="M314.98 161.549V194.326" stroke="#0A1214" stroke-linecap="round" stroke-linejoin="round"/>
<path d="M466.908 84.0781L436.738 114.113L466.908 144.149L497.078 114.113L466.908 84.0781Z" fill="#0A1214" stroke="#0A1214" stroke-linecap="round" stroke-linejoin="round"/>
<path d="M132.876 114.103L163.046 144.139L193.216 114.103L163.046 84.0681L132.876 114.103Z" fill="#0A1214" stroke="#0A1214" stroke-linecap="round" stroke-linejoin="round"/>
<path d="M497.08 413.582L466.91 383.547L436.741 413.582L466.911 443.617L497.08 413.582Z" fill="#0A1214" stroke="#0A1214" stroke-linecap="round" stroke-linejoin="round"/>
<rect width="21.6423" height="21.5519" transform="translate(456.658 403.117)" fill="white" style="mix-blend-mode:multiply"/>
<path d="M475.595 417.934V415.914C475.595 414.432 474.378 413.22 472.89 413.22C471.402 413.22 470.185 414.432 470.185 415.914V417.934C469.441 417.934 468.832 418.54 468.832 419.281V422.649C468.832 423.389 469.441 423.996 470.185 423.996H475.595C476.339 423.996 476.948 423.389 476.948 422.649V419.281C476.948 418.54 476.339 417.934 475.595 417.934ZM471.537 415.914C471.537 415.173 472.146 414.567 472.89 414.567C473.634 414.567 474.243 415.173 474.243 415.914V417.934H471.537V415.914ZM470.185 422.649V419.281H475.595V422.649H470.185Z" fill="white"/>
<path d="M466.127 413.893H462.069V415.24H466.127V413.893Z" fill="white"/>
<path d="M470.185 409.852H462.069V411.199H470.185V409.852Z" fill="white"/>
<path d="M474.243 405.811C474.243 405.07 473.634 404.464 472.89 404.464H459.364C458.62 404.464 458.011 405.07 458.011 405.811V414.567C458.011 417.328 459.499 419.82 461.934 421.1L465.45 422.985V421.436L462.61 419.887C460.581 418.877 459.364 416.789 459.364 414.567V405.811H472.89V411.199H474.243V405.811Z" fill="white"/>
<path d="M163.086 443.629L193.256 413.594L163.087 383.559L132.917 413.594L163.086 443.629Z" fill="#0A1214" stroke="#0A1214" stroke-linecap="round" stroke-linejoin="round"/>
<rect width="21.6423" height="21.5519" transform="translate(152.683 403.117)" fill="white" style="mix-blend-mode:multiply"/>
<path d="M172.972 415.914H164.856V417.261H172.972V415.914Z" fill="white"/>
<path d="M172.972 418.608H164.856V419.955H172.972V418.608Z" fill="white"/>
<path d="M170.267 421.302H164.856V422.649H170.267V421.302Z" fill="white"/>
<path d="M168.914 405.811C168.316 405.813 167.736 406.012 167.263 406.378C166.791 406.744 166.454 407.255 166.305 407.832H160.798V405.811H155.388V411.199H160.798V409.179H166.305C166.368 409.42 166.465 409.651 166.592 409.865L159.459 416.969C159.046 416.722 158.575 416.59 158.093 416.587C157.587 416.585 157.09 416.725 156.659 416.99C156.229 417.256 155.882 417.636 155.657 418.088C155.433 418.54 155.341 419.046 155.391 419.548C155.441 420.05 155.632 420.528 155.941 420.927C156.25 421.326 156.666 421.631 157.141 421.806C157.616 421.982 158.13 422.021 158.626 421.92C159.122 421.819 159.58 421.581 159.947 421.233C160.314 420.886 160.576 420.443 160.702 419.955H163.504V418.608H160.702C160.639 418.367 160.543 418.136 160.415 417.921L167.549 410.817C167.961 411.065 168.433 411.197 168.914 411.199C169.632 411.199 170.32 410.915 170.827 410.41C171.335 409.905 171.62 409.22 171.62 408.505C171.62 407.791 171.335 407.105 170.827 406.6C170.32 406.095 169.632 405.811 168.914 405.811ZM159.446 409.852H156.741V407.158H159.446V409.852ZM158.093 420.628C157.826 420.628 157.564 420.549 157.342 420.401C157.119 420.253 156.946 420.043 156.843 419.797C156.741 419.55 156.714 419.28 156.767 419.018C156.819 418.757 156.948 418.517 157.137 418.329C157.326 418.14 157.567 418.012 157.829 417.96C158.092 417.908 158.364 417.935 158.611 418.037C158.858 418.139 159.069 418.311 159.218 418.533C159.366 418.754 159.446 419.015 159.446 419.281C159.445 419.638 159.303 419.981 159.049 420.233C158.796 420.486 158.452 420.628 158.093 420.628ZM168.914 409.852C168.647 409.852 168.385 409.773 168.163 409.625C167.94 409.477 167.767 409.267 167.665 409.021C167.562 408.774 167.535 408.504 167.588 408.242C167.64 407.981 167.769 407.741 167.958 407.553C168.147 407.364 168.388 407.236 168.65 407.184C168.913 407.132 169.185 407.159 169.432 407.261C169.679 407.363 169.89 407.535 170.039 407.757C170.188 407.978 170.267 408.239 170.267 408.505C170.267 408.862 170.124 409.205 169.87 409.457C169.617 409.71 169.273 409.852 168.914 409.852Z" fill="white"/>
<path fill-rule="evenodd" clip-rule="evenodd" d="M290.88 279.562H297.77V274.825H293.346V244.304H319.105C326.079 244.304 330.952 248.082 333.7 253.334C335.227 256.332 336.135 259.591 336.373 262.928C336.654 266.332 336.294 269.758 335.31 273.037C333.401 279.223 329.076 284.29 322.434 285.418C319.868 285.723 317.279 285.812 314.697 285.683C313.311 285.635 311.875 285.635 311.186 285.635V290.396H314.623C317.507 290.545 320.4 290.437 323.265 290.074C332.023 288.599 337.593 282.18 340.001 274.374C341.178 270.543 341.622 266.535 341.312 262.549C341.022 258.585 339.939 254.714 338.124 251.151C334.58 244.353 328.287 239.52 319.155 239.52H288.439V279.562H290.88ZM317.886 250.482H300.453L300.428 255.275H300.453V274.801H300.428V279.545L300.453 279.545V285.675L288.706 285.611L288.723 290.355L302.91 290.404L305.359 290.379V279.559C310.609 279.569 315.596 279.56 316.707 279.505H316.956L316.976 279.504C320.371 279.35 329.807 278.923 329.807 265.256C329.774 251.288 317.928 250.482 317.886 250.482ZM305.359 274.801H316.458H316.716C318.874 274.704 324.926 274.43 324.909 265.296C324.909 256.379 318.476 255.372 317.612 255.275H305.359V274.801Z" fill="#0A1214"/>
<rect width="21.6423" height="21.5519" transform="translate(152.683 103.352)" fill="white" style="mix-blend-mode:multiply"/>
<path d="M172.972 116.822H166.209V118.169H172.972V116.822Z" fill="white"/>
<path d="M170.267 119.516H166.209V120.863H170.267V119.516Z" fill="white"/>
<path d="M172.972 114.801V114.128C172.97 112.172 172.357 110.265 171.218 108.671C170.078 107.078 168.469 105.878 166.614 105.236C164.758 104.595 162.748 104.545 160.862 105.093C158.977 105.641 157.309 106.76 156.091 108.295C154.873 109.829 154.165 111.703 154.065 113.656C153.965 115.61 154.478 117.546 155.533 119.196C156.588 120.846 158.132 122.128 159.952 122.864C161.772 123.6 163.777 123.754 165.688 123.304L165.377 121.993C164.763 122.137 164.135 122.21 163.504 122.21C163.375 122.21 163.25 122.197 163.123 122.191C161.655 120 160.854 117.434 160.816 114.801H172.972ZM171.592 113.454H167.545C167.47 110.973 166.828 108.541 165.669 106.343C167.267 106.785 168.69 107.704 169.749 108.975C170.807 110.246 171.45 111.809 171.592 113.454ZM163.885 106.064C165.352 108.255 166.153 110.821 166.192 113.454H160.816C160.854 110.821 161.655 108.255 163.123 106.064C163.25 106.058 163.375 106.046 163.504 106.046C163.632 106.046 163.757 106.058 163.885 106.064ZM161.339 106.343C160.179 108.541 159.538 110.973 159.463 113.454H155.416C155.557 111.809 156.2 110.246 157.259 108.975C158.318 107.704 159.741 106.785 161.339 106.343ZM161.339 121.912C159.741 121.47 158.318 120.551 157.259 119.28C156.2 118.009 155.557 116.446 155.416 114.801H159.463C159.538 117.282 160.179 119.714 161.339 121.912Z" fill="white"/>
<g clip-path="url(#clip0_110_2493)">
<rect width="21.6423" height="21.5519" transform="translate(455.675 103.352)" fill="white" style="mix-blend-mode:multiply"/>
<path d="M473.259 124.903L471.813 124.222C470.637 123.668 469.878 122.473 469.878 121.178V116.822H476.641V121.178C476.641 122.473 475.881 123.668 474.706 124.221L473.259 124.903ZM472.391 123.004L473.259 123.413L474.127 123.004C474.832 122.672 475.288 121.955 475.288 121.178V118.169H471.23V121.178C471.23 121.955 471.686 122.672 472.391 123.004Z" fill="white"/>
<path d="M467.172 110.481C466.919 110.229 466.575 110.087 466.216 110.087H462.438C461.691 110.087 461.085 110.69 461.085 111.434V120.862C461.085 121.606 461.691 122.209 462.438 122.209H468.525V120.862H462.438V111.434H465.143V114.128C465.143 114.871 465.749 115.475 466.496 115.475H469.399C469.867 115.475 470.286 115.196 470.465 114.765C470.645 114.333 470.546 113.841 470.215 113.511L467.172 110.481ZM466.496 114.128V111.712L468.921 114.128H466.496Z" fill="white"/>
<path d="M474.612 107.393H466.496L464.187 105.093C463.933 104.841 463.589 104.699 463.23 104.699H458.38C457.633 104.699 457.027 105.302 457.027 106.046V119.516C457.027 120.259 457.633 120.862 458.38 120.862H459.733V119.516H458.38V106.046H463.23L465.936 108.74H474.612V115.475H475.964V108.74C475.964 107.996 475.359 107.393 474.612 107.393Z" fill="white"/>
</g>
<defs>
<linearGradient id="paint0_linear_110_2493" x1="315" y1="123.543" x2="316.257" y2="404.994" gradientUnits="userSpaceOnUse">
<stop offset="0.467477" stop-color="#34DBFF"/>
<stop offset="1" stop-color="#C6FFE5"/>
</linearGradient>
<clipPath id="clip0_110_2493">
<rect width="21.6423" height="21.5519" fill="white" transform="translate(455.675 103.352)"/>
</clipPath>
</defs>
</svg>
